<mxfile host="app.diagrams.net" modified="2022-10-29T10:24:54.398Z" agent="5.0 (Windows NT 10.0; Win64; x64) AppleWebKit/537.36 (KHTML, like Gecko) Chrome/106.0.0.0 Safari/537.36" etag="TBsiodUBu5EOJtK0-AAW" version="20.5.1" type="github">
  <diagram id="894Z5156unbQrHD6qRJU" name="Page-1">
    <mxGraphModel dx="834" dy="526" grid="1" gridSize="10" guides="1" tooltips="1" connect="1" arrows="1" fold="1" page="1" pageScale="1" pageWidth="827" pageHeight="1169" math="0" shadow="0">
      <root>
        <mxCell id="0" />
        <mxCell id="1" parent="0" />
        <mxCell id="1QHa7JC74mxXXiWMhFZg-738" value="" style="rounded=0;whiteSpace=wrap;html=1;" vertex="1" parent="1">
          <mxGeometry x="240" y="200" width="10" height="10" as="geometry" />
        </mxCell>
        <mxCell id="1QHa7JC74mxXXiWMhFZg-739" value="" style="rounded=0;whiteSpace=wrap;html=1;" vertex="1" parent="1">
          <mxGeometry x="250" y="200" width="10" height="10" as="geometry" />
        </mxCell>
        <mxCell id="1QHa7JC74mxXXiWMhFZg-740" value="" style="rounded=0;whiteSpace=wrap;html=1;" vertex="1" parent="1">
          <mxGeometry x="260" y="200" width="10" height="10" as="geometry" />
        </mxCell>
        <mxCell id="1QHa7JC74mxXXiWMhFZg-741" value="" style="rounded=0;whiteSpace=wrap;html=1;" vertex="1" parent="1">
          <mxGeometry x="270" y="200" width="10" height="10" as="geometry" />
        </mxCell>
        <mxCell id="1QHa7JC74mxXXiWMhFZg-742" value="" style="rounded=0;whiteSpace=wrap;html=1;" vertex="1" parent="1">
          <mxGeometry x="280" y="200" width="10" height="10" as="geometry" />
        </mxCell>
        <mxCell id="1QHa7JC74mxXXiWMhFZg-743" value="" style="rounded=0;whiteSpace=wrap;html=1;" vertex="1" parent="1">
          <mxGeometry x="290" y="200" width="10" height="10" as="geometry" />
        </mxCell>
        <mxCell id="1QHa7JC74mxXXiWMhFZg-744" value="" style="rounded=0;whiteSpace=wrap;html=1;" vertex="1" parent="1">
          <mxGeometry x="300" y="200" width="10" height="10" as="geometry" />
        </mxCell>
        <mxCell id="1QHa7JC74mxXXiWMhFZg-745" value="" style="rounded=0;whiteSpace=wrap;html=1;" vertex="1" parent="1">
          <mxGeometry x="310" y="200" width="10" height="10" as="geometry" />
        </mxCell>
        <mxCell id="1QHa7JC74mxXXiWMhFZg-746" value="" style="rounded=0;whiteSpace=wrap;html=1;" vertex="1" parent="1">
          <mxGeometry x="240" y="210" width="10" height="10" as="geometry" />
        </mxCell>
        <mxCell id="1QHa7JC74mxXXiWMhFZg-747" value="" style="rounded=0;whiteSpace=wrap;html=1;" vertex="1" parent="1">
          <mxGeometry x="250" y="210" width="10" height="10" as="geometry" />
        </mxCell>
        <mxCell id="1QHa7JC74mxXXiWMhFZg-748" value="" style="rounded=0;whiteSpace=wrap;html=1;" vertex="1" parent="1">
          <mxGeometry x="260" y="210" width="10" height="10" as="geometry" />
        </mxCell>
        <mxCell id="1QHa7JC74mxXXiWMhFZg-749" value="" style="rounded=0;whiteSpace=wrap;html=1;" vertex="1" parent="1">
          <mxGeometry x="270" y="210" width="10" height="10" as="geometry" />
        </mxCell>
        <mxCell id="1QHa7JC74mxXXiWMhFZg-750" value="" style="rounded=0;whiteSpace=wrap;html=1;" vertex="1" parent="1">
          <mxGeometry x="280" y="210" width="10" height="10" as="geometry" />
        </mxCell>
        <mxCell id="1QHa7JC74mxXXiWMhFZg-751" value="" style="rounded=0;whiteSpace=wrap;html=1;" vertex="1" parent="1">
          <mxGeometry x="290" y="210" width="10" height="10" as="geometry" />
        </mxCell>
        <mxCell id="1QHa7JC74mxXXiWMhFZg-752" value="" style="rounded=0;whiteSpace=wrap;html=1;" vertex="1" parent="1">
          <mxGeometry x="300" y="210" width="10" height="10" as="geometry" />
        </mxCell>
        <mxCell id="1QHa7JC74mxXXiWMhFZg-753" value="" style="rounded=0;whiteSpace=wrap;html=1;" vertex="1" parent="1">
          <mxGeometry x="310" y="210" width="10" height="10" as="geometry" />
        </mxCell>
        <mxCell id="1QHa7JC74mxXXiWMhFZg-754" value="" style="rounded=0;whiteSpace=wrap;html=1;" vertex="1" parent="1">
          <mxGeometry x="240" y="220" width="10" height="10" as="geometry" />
        </mxCell>
        <mxCell id="1QHa7JC74mxXXiWMhFZg-755" value="" style="rounded=0;whiteSpace=wrap;html=1;" vertex="1" parent="1">
          <mxGeometry x="250" y="220" width="10" height="10" as="geometry" />
        </mxCell>
        <mxCell id="1QHa7JC74mxXXiWMhFZg-756" value="" style="rounded=0;whiteSpace=wrap;html=1;" vertex="1" parent="1">
          <mxGeometry x="260" y="220" width="10" height="10" as="geometry" />
        </mxCell>
        <mxCell id="1QHa7JC74mxXXiWMhFZg-757" value="" style="rounded=0;whiteSpace=wrap;html=1;" vertex="1" parent="1">
          <mxGeometry x="270" y="220" width="10" height="10" as="geometry" />
        </mxCell>
        <mxCell id="1QHa7JC74mxXXiWMhFZg-758" value="" style="rounded=0;whiteSpace=wrap;html=1;" vertex="1" parent="1">
          <mxGeometry x="280" y="220" width="10" height="10" as="geometry" />
        </mxCell>
        <mxCell id="1QHa7JC74mxXXiWMhFZg-759" value="" style="rounded=0;whiteSpace=wrap;html=1;" vertex="1" parent="1">
          <mxGeometry x="290" y="220" width="10" height="10" as="geometry" />
        </mxCell>
        <mxCell id="1QHa7JC74mxXXiWMhFZg-760" value="" style="rounded=0;whiteSpace=wrap;html=1;" vertex="1" parent="1">
          <mxGeometry x="300" y="220" width="10" height="10" as="geometry" />
        </mxCell>
        <mxCell id="1QHa7JC74mxXXiWMhFZg-761" value="" style="rounded=0;whiteSpace=wrap;html=1;" vertex="1" parent="1">
          <mxGeometry x="310" y="220" width="10" height="10" as="geometry" />
        </mxCell>
        <mxCell id="1QHa7JC74mxXXiWMhFZg-762" value="" style="rounded=0;whiteSpace=wrap;html=1;" vertex="1" parent="1">
          <mxGeometry x="240" y="230" width="10" height="10" as="geometry" />
        </mxCell>
        <mxCell id="1QHa7JC74mxXXiWMhFZg-763" value="" style="rounded=0;whiteSpace=wrap;html=1;" vertex="1" parent="1">
          <mxGeometry x="250" y="230" width="10" height="10" as="geometry" />
        </mxCell>
        <mxCell id="1QHa7JC74mxXXiWMhFZg-764" value="" style="rounded=0;whiteSpace=wrap;html=1;" vertex="1" parent="1">
          <mxGeometry x="260" y="230" width="10" height="10" as="geometry" />
        </mxCell>
        <mxCell id="1QHa7JC74mxXXiWMhFZg-765" value="" style="rounded=0;whiteSpace=wrap;html=1;" vertex="1" parent="1">
          <mxGeometry x="270" y="230" width="10" height="10" as="geometry" />
        </mxCell>
        <mxCell id="1QHa7JC74mxXXiWMhFZg-766" value="" style="rounded=0;whiteSpace=wrap;html=1;" vertex="1" parent="1">
          <mxGeometry x="280" y="230" width="10" height="10" as="geometry" />
        </mxCell>
        <mxCell id="1QHa7JC74mxXXiWMhFZg-767" value="" style="rounded=0;whiteSpace=wrap;html=1;" vertex="1" parent="1">
          <mxGeometry x="290" y="230" width="10" height="10" as="geometry" />
        </mxCell>
        <mxCell id="1QHa7JC74mxXXiWMhFZg-768" value="" style="rounded=0;whiteSpace=wrap;html=1;" vertex="1" parent="1">
          <mxGeometry x="300" y="230" width="10" height="10" as="geometry" />
        </mxCell>
        <mxCell id="1QHa7JC74mxXXiWMhFZg-769" value="" style="rounded=0;whiteSpace=wrap;html=1;" vertex="1" parent="1">
          <mxGeometry x="310" y="230" width="10" height="10" as="geometry" />
        </mxCell>
        <mxCell id="1QHa7JC74mxXXiWMhFZg-770" value="" style="rounded=0;whiteSpace=wrap;html=1;" vertex="1" parent="1">
          <mxGeometry x="240" y="240" width="10" height="10" as="geometry" />
        </mxCell>
        <mxCell id="1QHa7JC74mxXXiWMhFZg-771" value="" style="rounded=0;whiteSpace=wrap;html=1;" vertex="1" parent="1">
          <mxGeometry x="250" y="240" width="10" height="10" as="geometry" />
        </mxCell>
        <mxCell id="1QHa7JC74mxXXiWMhFZg-772" value="" style="rounded=0;whiteSpace=wrap;html=1;" vertex="1" parent="1">
          <mxGeometry x="260" y="240" width="10" height="10" as="geometry" />
        </mxCell>
        <mxCell id="1QHa7JC74mxXXiWMhFZg-773" value="" style="rounded=0;whiteSpace=wrap;html=1;" vertex="1" parent="1">
          <mxGeometry x="270" y="240" width="10" height="10" as="geometry" />
        </mxCell>
        <mxCell id="1QHa7JC74mxXXiWMhFZg-774" value="" style="rounded=0;whiteSpace=wrap;html=1;" vertex="1" parent="1">
          <mxGeometry x="280" y="240" width="10" height="10" as="geometry" />
        </mxCell>
        <mxCell id="1QHa7JC74mxXXiWMhFZg-775" value="" style="rounded=0;whiteSpace=wrap;html=1;" vertex="1" parent="1">
          <mxGeometry x="290" y="240" width="10" height="10" as="geometry" />
        </mxCell>
        <mxCell id="1QHa7JC74mxXXiWMhFZg-776" value="" style="rounded=0;whiteSpace=wrap;html=1;" vertex="1" parent="1">
          <mxGeometry x="300" y="240" width="10" height="10" as="geometry" />
        </mxCell>
        <mxCell id="1QHa7JC74mxXXiWMhFZg-777" value="" style="rounded=0;whiteSpace=wrap;html=1;" vertex="1" parent="1">
          <mxGeometry x="310" y="240" width="10" height="10" as="geometry" />
        </mxCell>
        <mxCell id="1QHa7JC74mxXXiWMhFZg-778" value="" style="rounded=0;whiteSpace=wrap;html=1;" vertex="1" parent="1">
          <mxGeometry x="240" y="250" width="10" height="10" as="geometry" />
        </mxCell>
        <mxCell id="1QHa7JC74mxXXiWMhFZg-779" value="" style="rounded=0;whiteSpace=wrap;html=1;" vertex="1" parent="1">
          <mxGeometry x="250" y="250" width="10" height="10" as="geometry" />
        </mxCell>
        <mxCell id="1QHa7JC74mxXXiWMhFZg-780" value="" style="rounded=0;whiteSpace=wrap;html=1;" vertex="1" parent="1">
          <mxGeometry x="260" y="250" width="10" height="10" as="geometry" />
        </mxCell>
        <mxCell id="1QHa7JC74mxXXiWMhFZg-781" value="" style="rounded=0;whiteSpace=wrap;html=1;" vertex="1" parent="1">
          <mxGeometry x="270" y="250" width="10" height="10" as="geometry" />
        </mxCell>
        <mxCell id="1QHa7JC74mxXXiWMhFZg-782" value="" style="rounded=0;whiteSpace=wrap;html=1;" vertex="1" parent="1">
          <mxGeometry x="280" y="250" width="10" height="10" as="geometry" />
        </mxCell>
        <mxCell id="1QHa7JC74mxXXiWMhFZg-783" value="" style="rounded=0;whiteSpace=wrap;html=1;" vertex="1" parent="1">
          <mxGeometry x="290" y="250" width="10" height="10" as="geometry" />
        </mxCell>
        <mxCell id="1QHa7JC74mxXXiWMhFZg-784" value="" style="rounded=0;whiteSpace=wrap;html=1;" vertex="1" parent="1">
          <mxGeometry x="300" y="250" width="10" height="10" as="geometry" />
        </mxCell>
        <mxCell id="1QHa7JC74mxXXiWMhFZg-785" value="" style="rounded=0;whiteSpace=wrap;html=1;" vertex="1" parent="1">
          <mxGeometry x="310" y="250" width="10" height="10" as="geometry" />
        </mxCell>
        <mxCell id="1QHa7JC74mxXXiWMhFZg-786" value="" style="rounded=0;whiteSpace=wrap;html=1;" vertex="1" parent="1">
          <mxGeometry x="240" y="260" width="10" height="10" as="geometry" />
        </mxCell>
        <mxCell id="1QHa7JC74mxXXiWMhFZg-787" value="" style="rounded=0;whiteSpace=wrap;html=1;" vertex="1" parent="1">
          <mxGeometry x="250" y="260" width="10" height="10" as="geometry" />
        </mxCell>
        <mxCell id="1QHa7JC74mxXXiWMhFZg-788" value="" style="rounded=0;whiteSpace=wrap;html=1;" vertex="1" parent="1">
          <mxGeometry x="260" y="260" width="10" height="10" as="geometry" />
        </mxCell>
        <mxCell id="1QHa7JC74mxXXiWMhFZg-789" value="" style="rounded=0;whiteSpace=wrap;html=1;" vertex="1" parent="1">
          <mxGeometry x="270" y="260" width="10" height="10" as="geometry" />
        </mxCell>
        <mxCell id="1QHa7JC74mxXXiWMhFZg-790" value="" style="rounded=0;whiteSpace=wrap;html=1;" vertex="1" parent="1">
          <mxGeometry x="280" y="260" width="10" height="10" as="geometry" />
        </mxCell>
        <mxCell id="1QHa7JC74mxXXiWMhFZg-791" value="" style="rounded=0;whiteSpace=wrap;html=1;" vertex="1" parent="1">
          <mxGeometry x="290" y="260" width="10" height="10" as="geometry" />
        </mxCell>
        <mxCell id="1QHa7JC74mxXXiWMhFZg-792" value="" style="rounded=0;whiteSpace=wrap;html=1;" vertex="1" parent="1">
          <mxGeometry x="300" y="260" width="10" height="10" as="geometry" />
        </mxCell>
        <mxCell id="1QHa7JC74mxXXiWMhFZg-793" value="" style="rounded=0;whiteSpace=wrap;html=1;" vertex="1" parent="1">
          <mxGeometry x="310" y="260" width="10" height="10" as="geometry" />
        </mxCell>
        <mxCell id="1QHa7JC74mxXXiWMhFZg-794" style="rounded=0;orthogonalLoop=1;jettySize=auto;html=1;exitX=0;exitY=1;exitDx=0;exitDy=0;entryX=0;entryY=0;entryDx=0;entryDy=0;strokeColor=#F19C99;strokeWidth=1;fontFamily=Times New Roman;fontSize=11;fillColor=#FFFFFF;endArrow=none;endFill=0;" edge="1" source="1QHa7JC74mxXXiWMhFZg-795" target="1QHa7JC74mxXXiWMhFZg-868" parent="1">
          <mxGeometry relative="1" as="geometry" />
        </mxCell>
        <mxCell id="1QHa7JC74mxXXiWMhFZg-795" value="" style="rounded=0;whiteSpace=wrap;html=1;" vertex="1" parent="1">
          <mxGeometry x="240" y="270" width="10" height="10" as="geometry" />
        </mxCell>
        <mxCell id="1QHa7JC74mxXXiWMhFZg-796" value="" style="rounded=0;whiteSpace=wrap;html=1;" vertex="1" parent="1">
          <mxGeometry x="250" y="270" width="10" height="10" as="geometry" />
        </mxCell>
        <mxCell id="1QHa7JC74mxXXiWMhFZg-797" value="" style="rounded=0;whiteSpace=wrap;html=1;" vertex="1" parent="1">
          <mxGeometry x="260" y="270" width="10" height="10" as="geometry" />
        </mxCell>
        <mxCell id="1QHa7JC74mxXXiWMhFZg-798" value="" style="rounded=0;whiteSpace=wrap;html=1;" vertex="1" parent="1">
          <mxGeometry x="270" y="270" width="10" height="10" as="geometry" />
        </mxCell>
        <mxCell id="1QHa7JC74mxXXiWMhFZg-799" value="" style="rounded=0;whiteSpace=wrap;html=1;" vertex="1" parent="1">
          <mxGeometry x="280" y="270" width="10" height="10" as="geometry" />
        </mxCell>
        <mxCell id="1QHa7JC74mxXXiWMhFZg-800" value="" style="rounded=0;whiteSpace=wrap;html=1;" vertex="1" parent="1">
          <mxGeometry x="290" y="270" width="10" height="10" as="geometry" />
        </mxCell>
        <mxCell id="1QHa7JC74mxXXiWMhFZg-801" value="" style="rounded=0;whiteSpace=wrap;html=1;" vertex="1" parent="1">
          <mxGeometry x="300" y="270" width="10" height="10" as="geometry" />
        </mxCell>
        <mxCell id="1QHa7JC74mxXXiWMhFZg-802" style="edgeStyle=none;rounded=0;orthogonalLoop=1;jettySize=auto;html=1;exitX=1;exitY=1;exitDx=0;exitDy=0;entryX=1;entryY=0;entryDx=0;entryDy=0;strokeColor=#F19C99;strokeWidth=1;fontFamily=Times New Roman;fontSize=11;endArrow=none;endFill=0;fillColor=#FFFFFF;" edge="1" source="1QHa7JC74mxXXiWMhFZg-803" target="1QHa7JC74mxXXiWMhFZg-932" parent="1">
          <mxGeometry relative="1" as="geometry" />
        </mxCell>
        <mxCell id="1QHa7JC74mxXXiWMhFZg-803" value="" style="rounded=0;whiteSpace=wrap;html=1;" vertex="1" parent="1">
          <mxGeometry x="310" y="270" width="10" height="10" as="geometry" />
        </mxCell>
        <mxCell id="1QHa7JC74mxXXiWMhFZg-804" value="" style="rounded=0;whiteSpace=wrap;html=1;fillColor=#093B87;" vertex="1" parent="1">
          <mxGeometry x="480" y="498" width="10" height="10" as="geometry" />
        </mxCell>
        <mxCell id="1QHa7JC74mxXXiWMhFZg-805" value="" style="rounded=0;whiteSpace=wrap;html=1;fillColor=#104997;" vertex="1" parent="1">
          <mxGeometry x="490" y="498" width="10" height="10" as="geometry" />
        </mxCell>
        <mxCell id="1QHa7JC74mxXXiWMhFZg-806" value="" style="rounded=0;whiteSpace=wrap;html=1;fillColor=#1858A7;" vertex="1" parent="1">
          <mxGeometry x="500" y="498" width="10" height="10" as="geometry" />
        </mxCell>
        <mxCell id="1QHa7JC74mxXXiWMhFZg-807" value="" style="rounded=0;whiteSpace=wrap;html=1;fillColor=#000000;" vertex="1" parent="1">
          <mxGeometry x="510" y="498" width="10" height="10" as="geometry" />
        </mxCell>
        <mxCell id="1QHa7JC74mxXXiWMhFZg-808" value="" style="rounded=0;whiteSpace=wrap;html=1;fillColor=#1858A7;" vertex="1" parent="1">
          <mxGeometry x="520" y="498" width="10" height="10" as="geometry" />
        </mxCell>
        <mxCell id="1QHa7JC74mxXXiWMhFZg-809" value="" style="rounded=0;whiteSpace=wrap;html=1;fillColor=#104793;" vertex="1" parent="1">
          <mxGeometry x="530" y="498" width="10" height="10" as="geometry" />
        </mxCell>
        <mxCell id="1QHa7JC74mxXXiWMhFZg-810" value="" style="rounded=0;whiteSpace=wrap;html=1;fillColor=#093B87;" vertex="1" parent="1">
          <mxGeometry x="540" y="498" width="10" height="10" as="geometry" />
        </mxCell>
        <mxCell id="1QHa7JC74mxXXiWMhFZg-811" value="" style="rounded=0;whiteSpace=wrap;html=1;fillColor=#042E77;" vertex="1" parent="1">
          <mxGeometry x="550" y="498" width="10" height="10" as="geometry" />
        </mxCell>
        <mxCell id="1QHa7JC74mxXXiWMhFZg-812" value="" style="rounded=0;whiteSpace=wrap;html=1;fillColor=#1858A7;" vertex="1" parent="1">
          <mxGeometry x="480" y="508" width="10" height="10" as="geometry" />
        </mxCell>
        <mxCell id="1QHa7JC74mxXXiWMhFZg-813" value="" style="rounded=0;whiteSpace=wrap;html=1;fillColor=#4997DC;" vertex="1" parent="1">
          <mxGeometry x="490" y="508" width="10" height="10" as="geometry" />
        </mxCell>
        <mxCell id="1QHa7JC74mxXXiWMhFZg-814" value="" style="rounded=0;whiteSpace=wrap;html=1;fillColor=#000000;" vertex="1" parent="1">
          <mxGeometry x="500" y="508" width="10" height="10" as="geometry" />
        </mxCell>
        <mxCell id="1QHa7JC74mxXXiWMhFZg-815" value="" style="rounded=0;whiteSpace=wrap;html=1;fillColor=#000000;" vertex="1" parent="1">
          <mxGeometry x="510" y="508" width="10" height="10" as="geometry" />
        </mxCell>
        <mxCell id="1QHa7JC74mxXXiWMhFZg-816" value="" style="rounded=0;whiteSpace=wrap;html=1;fillColor=#000000;" vertex="1" parent="1">
          <mxGeometry x="520" y="508" width="10" height="10" as="geometry" />
        </mxCell>
        <mxCell id="1QHa7JC74mxXXiWMhFZg-817" value="" style="rounded=0;whiteSpace=wrap;html=1;fillColor=#68B6EF;" vertex="1" parent="1">
          <mxGeometry x="530" y="508" width="10" height="10" as="geometry" />
        </mxCell>
        <mxCell id="1QHa7JC74mxXXiWMhFZg-818" value="" style="rounded=0;whiteSpace=wrap;html=1;fillColor=#093B87;" vertex="1" parent="1">
          <mxGeometry x="540" y="508" width="10" height="10" as="geometry" />
        </mxCell>
        <mxCell id="1QHa7JC74mxXXiWMhFZg-819" value="" style="rounded=0;whiteSpace=wrap;html=1;fillColor=#042E77;" vertex="1" parent="1">
          <mxGeometry x="550" y="508" width="10" height="10" as="geometry" />
        </mxCell>
        <mxCell id="1QHa7JC74mxXXiWMhFZg-820" value="" style="rounded=0;whiteSpace=wrap;html=1;fillColor=#2E77C4;" vertex="1" parent="1">
          <mxGeometry x="480" y="518" width="10" height="10" as="geometry" />
        </mxCell>
        <mxCell id="1QHa7JC74mxXXiWMhFZg-821" value="" style="rounded=0;whiteSpace=wrap;html=1;fillColor=#000000;" vertex="1" parent="1">
          <mxGeometry x="490" y="518" width="10" height="10" as="geometry" />
        </mxCell>
        <mxCell id="1QHa7JC74mxXXiWMhFZg-822" value="" style="rounded=0;whiteSpace=wrap;html=1;fillColor=#000000;" vertex="1" parent="1">
          <mxGeometry x="500" y="518" width="10" height="10" as="geometry" />
        </mxCell>
        <mxCell id="1QHa7JC74mxXXiWMhFZg-823" value="" style="rounded=0;whiteSpace=wrap;html=1;fillColor=#000000;" vertex="1" parent="1">
          <mxGeometry x="510" y="518" width="10" height="10" as="geometry" />
        </mxCell>
        <mxCell id="1QHa7JC74mxXXiWMhFZg-824" value="" style="rounded=0;whiteSpace=wrap;html=1;fillColor=#000000;" vertex="1" parent="1">
          <mxGeometry x="520" y="518" width="10" height="10" as="geometry" />
        </mxCell>
        <mxCell id="1QHa7JC74mxXXiWMhFZg-825" value="" style="rounded=0;whiteSpace=wrap;html=1;fillColor=#C4F6FB;" vertex="1" parent="1">
          <mxGeometry x="530" y="518" width="10" height="10" as="geometry" />
        </mxCell>
        <mxCell id="1QHa7JC74mxXXiWMhFZg-826" value="" style="rounded=0;whiteSpace=wrap;html=1;fillColor=#104997;" vertex="1" parent="1">
          <mxGeometry x="540" y="518" width="10" height="10" as="geometry" />
        </mxCell>
        <mxCell id="1QHa7JC74mxXXiWMhFZg-827" value="" style="rounded=0;whiteSpace=wrap;html=1;fillColor=#093B86;" vertex="1" parent="1">
          <mxGeometry x="550" y="518" width="10" height="10" as="geometry" />
        </mxCell>
        <mxCell id="1QHa7JC74mxXXiWMhFZg-828" value="" style="rounded=0;whiteSpace=wrap;html=1;fillColor=#000000;" vertex="1" parent="1">
          <mxGeometry x="480" y="528" width="10" height="10" as="geometry" />
        </mxCell>
        <mxCell id="1QHa7JC74mxXXiWMhFZg-829" value="" style="rounded=0;whiteSpace=wrap;html=1;fillColor=#000000;" vertex="1" parent="1">
          <mxGeometry x="490" y="528" width="10" height="10" as="geometry" />
        </mxCell>
        <mxCell id="1QHa7JC74mxXXiWMhFZg-830" value="" style="rounded=0;whiteSpace=wrap;html=1;fillColor=#000000;" vertex="1" parent="1">
          <mxGeometry x="500" y="528" width="10" height="10" as="geometry" />
        </mxCell>
        <mxCell id="1QHa7JC74mxXXiWMhFZg-831" value="" style="rounded=0;whiteSpace=wrap;html=1;fillColor=#000000;" vertex="1" parent="1">
          <mxGeometry x="510" y="528" width="10" height="10" as="geometry" />
        </mxCell>
        <mxCell id="1QHa7JC74mxXXiWMhFZg-832" value="" style="rounded=0;whiteSpace=wrap;html=1;fillColor=#000000;" vertex="1" parent="1">
          <mxGeometry x="520" y="528" width="10" height="10" as="geometry" />
        </mxCell>
        <mxCell id="1QHa7JC74mxXXiWMhFZg-833" value="" style="rounded=0;whiteSpace=wrap;html=1;fillColor=#C4F6FB;" vertex="1" parent="1">
          <mxGeometry x="530" y="528" width="10" height="10" as="geometry" />
        </mxCell>
        <mxCell id="1QHa7JC74mxXXiWMhFZg-834" value="" style="rounded=0;whiteSpace=wrap;html=1;fillColor=#104997;" vertex="1" parent="1">
          <mxGeometry x="540" y="528" width="10" height="10" as="geometry" />
        </mxCell>
        <mxCell id="1QHa7JC74mxXXiWMhFZg-835" value="" style="rounded=0;whiteSpace=wrap;html=1;fillColor=#093B86;" vertex="1" parent="1">
          <mxGeometry x="550" y="528" width="10" height="10" as="geometry" />
        </mxCell>
        <mxCell id="1QHa7JC74mxXXiWMhFZg-836" value="" style="rounded=0;whiteSpace=wrap;html=1;fillColor=#000000;" vertex="1" parent="1">
          <mxGeometry x="480" y="538" width="10" height="10" as="geometry" />
        </mxCell>
        <mxCell id="1QHa7JC74mxXXiWMhFZg-837" value="" style="rounded=0;whiteSpace=wrap;html=1;fillColor=#000000;" vertex="1" parent="1">
          <mxGeometry x="490" y="538" width="10" height="10" as="geometry" />
        </mxCell>
        <mxCell id="1QHa7JC74mxXXiWMhFZg-838" value="" style="rounded=0;whiteSpace=wrap;html=1;fillColor=#000000;" vertex="1" parent="1">
          <mxGeometry x="500" y="538" width="10" height="10" as="geometry" />
        </mxCell>
        <mxCell id="1QHa7JC74mxXXiWMhFZg-839" value="" style="rounded=0;whiteSpace=wrap;html=1;fillColor=#000000;" vertex="1" parent="1">
          <mxGeometry x="510" y="538" width="10" height="10" as="geometry" />
        </mxCell>
        <mxCell id="1QHa7JC74mxXXiWMhFZg-840" value="" style="rounded=0;whiteSpace=wrap;html=1;fillColor=#000000;" vertex="1" parent="1">
          <mxGeometry x="520" y="538" width="10" height="10" as="geometry" />
        </mxCell>
        <mxCell id="1QHa7JC74mxXXiWMhFZg-841" value="" style="rounded=0;whiteSpace=wrap;html=1;fillColor=#C4F6FB;" vertex="1" parent="1">
          <mxGeometry x="530" y="538" width="10" height="10" as="geometry" />
        </mxCell>
        <mxCell id="1QHa7JC74mxXXiWMhFZg-842" value="" style="rounded=0;whiteSpace=wrap;html=1;fillColor=#104997;" vertex="1" parent="1">
          <mxGeometry x="540" y="538" width="10" height="10" as="geometry" />
        </mxCell>
        <mxCell id="1QHa7JC74mxXXiWMhFZg-843" value="" style="rounded=0;whiteSpace=wrap;html=1;fillColor=#093B86;" vertex="1" parent="1">
          <mxGeometry x="550" y="538" width="10" height="10" as="geometry" />
        </mxCell>
        <mxCell id="1QHa7JC74mxXXiWMhFZg-844" value="" style="rounded=0;whiteSpace=wrap;html=1;fillColor=#2E77C4;" vertex="1" parent="1">
          <mxGeometry x="480" y="548" width="10" height="10" as="geometry" />
        </mxCell>
        <mxCell id="1QHa7JC74mxXXiWMhFZg-845" value="" style="rounded=0;whiteSpace=wrap;html=1;fillColor=#000000;" vertex="1" parent="1">
          <mxGeometry x="490" y="548" width="10" height="10" as="geometry" />
        </mxCell>
        <mxCell id="1QHa7JC74mxXXiWMhFZg-846" value="" style="rounded=0;whiteSpace=wrap;html=1;fillColor=#000000;" vertex="1" parent="1">
          <mxGeometry x="500" y="548" width="10" height="10" as="geometry" />
        </mxCell>
        <mxCell id="1QHa7JC74mxXXiWMhFZg-847" value="" style="rounded=0;whiteSpace=wrap;html=1;fillColor=#000000;" vertex="1" parent="1">
          <mxGeometry x="510" y="548" width="10" height="10" as="geometry" />
        </mxCell>
        <mxCell id="1QHa7JC74mxXXiWMhFZg-848" value="" style="rounded=0;whiteSpace=wrap;html=1;fillColor=#000000;" vertex="1" parent="1">
          <mxGeometry x="520" y="548" width="10" height="10" as="geometry" />
        </mxCell>
        <mxCell id="1QHa7JC74mxXXiWMhFZg-849" value="" style="rounded=0;whiteSpace=wrap;html=1;fillColor=#C4F6FB;" vertex="1" parent="1">
          <mxGeometry x="530" y="548" width="10" height="10" as="geometry" />
        </mxCell>
        <mxCell id="1QHa7JC74mxXXiWMhFZg-850" value="" style="rounded=0;whiteSpace=wrap;html=1;fillColor=#104997;" vertex="1" parent="1">
          <mxGeometry x="540" y="548" width="10" height="10" as="geometry" />
        </mxCell>
        <mxCell id="1QHa7JC74mxXXiWMhFZg-851" value="" style="rounded=0;whiteSpace=wrap;html=1;fillColor=#093B86;" vertex="1" parent="1">
          <mxGeometry x="550" y="548" width="10" height="10" as="geometry" />
        </mxCell>
        <mxCell id="1QHa7JC74mxXXiWMhFZg-852" value="" style="rounded=0;whiteSpace=wrap;html=1;fillColor=#1858A7;" vertex="1" parent="1">
          <mxGeometry x="480" y="558" width="10" height="10" as="geometry" />
        </mxCell>
        <mxCell id="1QHa7JC74mxXXiWMhFZg-853" value="" style="rounded=0;whiteSpace=wrap;html=1;fillColor=#4997DC;" vertex="1" parent="1">
          <mxGeometry x="490" y="558" width="10" height="10" as="geometry" />
        </mxCell>
        <mxCell id="1QHa7JC74mxXXiWMhFZg-854" value="" style="rounded=0;whiteSpace=wrap;html=1;fillColor=#000000;" vertex="1" parent="1">
          <mxGeometry x="500" y="558" width="10" height="10" as="geometry" />
        </mxCell>
        <mxCell id="1QHa7JC74mxXXiWMhFZg-855" value="" style="rounded=0;whiteSpace=wrap;html=1;fillColor=#000000;" vertex="1" parent="1">
          <mxGeometry x="510" y="558" width="10" height="10" as="geometry" />
        </mxCell>
        <mxCell id="1QHa7JC74mxXXiWMhFZg-856" value="" style="rounded=0;whiteSpace=wrap;html=1;fillColor=#000000;" vertex="1" parent="1">
          <mxGeometry x="520" y="558" width="10" height="10" as="geometry" />
        </mxCell>
        <mxCell id="1QHa7JC74mxXXiWMhFZg-857" value="" style="rounded=0;whiteSpace=wrap;html=1;fillColor=#68B6EF;" vertex="1" parent="1">
          <mxGeometry x="530" y="558" width="10" height="10" as="geometry" />
        </mxCell>
        <mxCell id="1QHa7JC74mxXXiWMhFZg-858" value="" style="rounded=0;whiteSpace=wrap;html=1;fillColor=#093B87;" vertex="1" parent="1">
          <mxGeometry x="540" y="558" width="10" height="10" as="geometry" />
        </mxCell>
        <mxCell id="1QHa7JC74mxXXiWMhFZg-859" value="" style="rounded=0;whiteSpace=wrap;html=1;fillColor=#042E77;" vertex="1" parent="1">
          <mxGeometry x="550" y="558" width="10" height="10" as="geometry" />
        </mxCell>
        <mxCell id="1QHa7JC74mxXXiWMhFZg-860" value="" style="rounded=0;whiteSpace=wrap;html=1;fillColor=#093B87;" vertex="1" parent="1">
          <mxGeometry x="480" y="568" width="10" height="10" as="geometry" />
        </mxCell>
        <mxCell id="1QHa7JC74mxXXiWMhFZg-861" value="" style="rounded=0;whiteSpace=wrap;html=1;fillColor=#104997;" vertex="1" parent="1">
          <mxGeometry x="490" y="568" width="10" height="10" as="geometry" />
        </mxCell>
        <mxCell id="1QHa7JC74mxXXiWMhFZg-862" value="" style="rounded=0;whiteSpace=wrap;html=1;fillColor=#1858A7;" vertex="1" parent="1">
          <mxGeometry x="500" y="568" width="10" height="10" as="geometry" />
        </mxCell>
        <mxCell id="1QHa7JC74mxXXiWMhFZg-863" value="" style="rounded=0;whiteSpace=wrap;html=1;fillColor=#000000;" vertex="1" parent="1">
          <mxGeometry x="510" y="568" width="10" height="10" as="geometry" />
        </mxCell>
        <mxCell id="1QHa7JC74mxXXiWMhFZg-864" value="" style="rounded=0;whiteSpace=wrap;html=1;fillColor=#1858A7;" vertex="1" parent="1">
          <mxGeometry x="520" y="568" width="10" height="10" as="geometry" />
        </mxCell>
        <mxCell id="1QHa7JC74mxXXiWMhFZg-865" value="" style="rounded=0;whiteSpace=wrap;html=1;fillColor=#104793;" vertex="1" parent="1">
          <mxGeometry x="530" y="568" width="10" height="10" as="geometry" />
        </mxCell>
        <mxCell id="1QHa7JC74mxXXiWMhFZg-866" value="" style="rounded=0;whiteSpace=wrap;html=1;fillColor=#093B87;" vertex="1" parent="1">
          <mxGeometry x="540" y="568" width="10" height="10" as="geometry" />
        </mxCell>
        <mxCell id="1QHa7JC74mxXXiWMhFZg-867" value="" style="rounded=0;whiteSpace=wrap;html=1;fillColor=#042E77;" vertex="1" parent="1">
          <mxGeometry x="550" y="568" width="10" height="10" as="geometry" />
        </mxCell>
        <mxCell id="1QHa7JC74mxXXiWMhFZg-1939" style="edgeStyle=none;rounded=0;orthogonalLoop=1;jettySize=auto;html=1;exitX=0.5;exitY=1;exitDx=0;exitDy=0;entryX=0;entryY=0.5;entryDx=0;entryDy=0;strokeColor=#FF8000;strokeWidth=1;fontFamily=Times New Roman;fontSize=12;fontColor=#573C03;endArrow=classicThin;endFill=1;fillColor=#FFFFFF;" edge="1" parent="1" source="1QHa7JC74mxXXiWMhFZg-868" target="1QHa7JC74mxXXiWMhFZg-1873">
          <mxGeometry relative="1" as="geometry" />
        </mxCell>
        <mxCell id="1QHa7JC74mxXXiWMhFZg-868" value="" style="rounded=0;whiteSpace=wrap;html=1;fillColor=#7C838C;" vertex="1" parent="1">
          <mxGeometry x="80" y="310" width="10" height="10" as="geometry" />
        </mxCell>
        <mxCell id="1QHa7JC74mxXXiWMhFZg-869" value="" style="rounded=0;whiteSpace=wrap;html=1;fillColor=#7C838C;" vertex="1" parent="1">
          <mxGeometry x="90" y="310" width="10" height="10" as="geometry" />
        </mxCell>
        <mxCell id="1QHa7JC74mxXXiWMhFZg-870" value="" style="rounded=0;whiteSpace=wrap;html=1;fillColor=#7C838C;" vertex="1" parent="1">
          <mxGeometry x="100" y="310" width="10" height="10" as="geometry" />
        </mxCell>
        <mxCell id="1QHa7JC74mxXXiWMhFZg-871" value="" style="rounded=0;whiteSpace=wrap;html=1;fillColor=#7C838C;" vertex="1" parent="1">
          <mxGeometry x="110" y="310" width="10" height="10" as="geometry" />
        </mxCell>
        <mxCell id="1QHa7JC74mxXXiWMhFZg-1940" style="edgeStyle=none;rounded=0;orthogonalLoop=1;jettySize=auto;html=1;exitX=0.5;exitY=1;exitDx=0;exitDy=0;entryX=0;entryY=0.75;entryDx=0;entryDy=0;strokeColor=#FF8000;strokeWidth=1;fontFamily=Times New Roman;fontSize=12;fontColor=#573C03;endArrow=classicThin;endFill=1;fillColor=#FFFFFF;" edge="1" parent="1" source="1QHa7JC74mxXXiWMhFZg-872" target="1QHa7JC74mxXXiWMhFZg-1877">
          <mxGeometry relative="1" as="geometry" />
        </mxCell>
        <mxCell id="1QHa7JC74mxXXiWMhFZg-872" value="" style="rounded=0;whiteSpace=wrap;html=1;fillColor=#88A8BF;" vertex="1" parent="1">
          <mxGeometry x="120" y="310" width="10" height="10" as="geometry" />
        </mxCell>
        <mxCell id="1QHa7JC74mxXXiWMhFZg-873" value="" style="rounded=0;whiteSpace=wrap;html=1;fillColor=#88A8BF;" vertex="1" parent="1">
          <mxGeometry x="130" y="310" width="10" height="10" as="geometry" />
        </mxCell>
        <mxCell id="1QHa7JC74mxXXiWMhFZg-874" value="" style="rounded=0;whiteSpace=wrap;html=1;fillColor=#88A8BF;" vertex="1" parent="1">
          <mxGeometry x="140" y="310" width="10" height="10" as="geometry" />
        </mxCell>
        <mxCell id="1QHa7JC74mxXXiWMhFZg-875" value="" style="rounded=0;whiteSpace=wrap;html=1;fillColor=#88A8BF;" vertex="1" parent="1">
          <mxGeometry x="150" y="310" width="10" height="10" as="geometry" />
        </mxCell>
        <mxCell id="1QHa7JC74mxXXiWMhFZg-1941" style="edgeStyle=none;rounded=0;orthogonalLoop=1;jettySize=auto;html=1;exitX=0.5;exitY=1;exitDx=0;exitDy=0;entryX=0;entryY=0.75;entryDx=0;entryDy=0;strokeColor=#FF8000;strokeWidth=1;fontFamily=Times New Roman;fontSize=12;fontColor=#573C03;endArrow=classicThin;endFill=1;fillColor=#FFFFFF;" edge="1" parent="1" source="1QHa7JC74mxXXiWMhFZg-876" target="1QHa7JC74mxXXiWMhFZg-1881">
          <mxGeometry relative="1" as="geometry" />
        </mxCell>
        <mxCell id="1QHa7JC74mxXXiWMhFZg-876" value="" style="rounded=0;whiteSpace=wrap;html=1;fillColor=#BB920B;" vertex="1" parent="1">
          <mxGeometry x="160" y="310" width="10" height="10" as="geometry" />
        </mxCell>
        <mxCell id="1QHa7JC74mxXXiWMhFZg-877" value="" style="rounded=0;whiteSpace=wrap;html=1;fillColor=#BB920B;" vertex="1" parent="1">
          <mxGeometry x="170" y="310" width="10" height="10" as="geometry" />
        </mxCell>
        <mxCell id="1QHa7JC74mxXXiWMhFZg-878" value="" style="rounded=0;whiteSpace=wrap;html=1;fillColor=#BB920B;" vertex="1" parent="1">
          <mxGeometry x="180" y="310" width="10" height="10" as="geometry" />
        </mxCell>
        <mxCell id="1QHa7JC74mxXXiWMhFZg-879" value="" style="rounded=0;whiteSpace=wrap;html=1;fillColor=#BB920B;" vertex="1" parent="1">
          <mxGeometry x="190" y="310" width="10" height="10" as="geometry" />
        </mxCell>
        <mxCell id="1QHa7JC74mxXXiWMhFZg-880" value="" style="rounded=0;whiteSpace=wrap;html=1;fillColor=#573C03;" vertex="1" parent="1">
          <mxGeometry x="200" y="310" width="10" height="10" as="geometry" />
        </mxCell>
        <mxCell id="1QHa7JC74mxXXiWMhFZg-881" value="" style="rounded=0;whiteSpace=wrap;html=1;fillColor=#573C03;" vertex="1" parent="1">
          <mxGeometry x="210" y="310" width="10" height="10" as="geometry" />
        </mxCell>
        <mxCell id="1QHa7JC74mxXXiWMhFZg-882" value="" style="rounded=0;whiteSpace=wrap;html=1;fillColor=#573C03;" vertex="1" parent="1">
          <mxGeometry x="220" y="310" width="10" height="10" as="geometry" />
        </mxCell>
        <mxCell id="1QHa7JC74mxXXiWMhFZg-883" value="" style="rounded=0;whiteSpace=wrap;html=1;fillColor=#573C03;" vertex="1" parent="1">
          <mxGeometry x="230" y="310" width="10" height="10" as="geometry" />
        </mxCell>
        <mxCell id="1QHa7JC74mxXXiWMhFZg-884" value="" style="rounded=0;whiteSpace=wrap;html=1;fillColor=#88A8BF;" vertex="1" parent="1">
          <mxGeometry x="240" y="310" width="10" height="10" as="geometry" />
        </mxCell>
        <mxCell id="1QHa7JC74mxXXiWMhFZg-885" value="" style="rounded=0;whiteSpace=wrap;html=1;fillColor=#88A8BF;" vertex="1" parent="1">
          <mxGeometry x="250" y="310" width="10" height="10" as="geometry" />
        </mxCell>
        <mxCell id="1QHa7JC74mxXXiWMhFZg-886" value="" style="rounded=0;whiteSpace=wrap;html=1;fillColor=#88A8BF;" vertex="1" parent="1">
          <mxGeometry x="260" y="310" width="10" height="10" as="geometry" />
        </mxCell>
        <mxCell id="1QHa7JC74mxXXiWMhFZg-887" value="" style="rounded=0;whiteSpace=wrap;html=1;fillColor=#88A8BF;" vertex="1" parent="1">
          <mxGeometry x="270" y="310" width="10" height="10" as="geometry" />
        </mxCell>
        <mxCell id="1QHa7JC74mxXXiWMhFZg-1944" style="edgeStyle=none;rounded=0;orthogonalLoop=1;jettySize=auto;html=1;exitX=0.5;exitY=1;exitDx=0;exitDy=0;entryX=0.5;entryY=0;entryDx=0;entryDy=0;strokeColor=#FF8000;strokeWidth=1;fontFamily=Times New Roman;fontSize=12;fontColor=#573C03;endArrow=classicThin;endFill=1;fillColor=#FFFFFF;" edge="1" parent="1" source="1QHa7JC74mxXXiWMhFZg-888" target="1QHa7JC74mxXXiWMhFZg-1893">
          <mxGeometry relative="1" as="geometry" />
        </mxCell>
        <mxCell id="1QHa7JC74mxXXiWMhFZg-888" value="" style="rounded=0;whiteSpace=wrap;html=1;fillColor=#7C838C;" vertex="1" parent="1">
          <mxGeometry x="280" y="310" width="10" height="10" as="geometry" />
        </mxCell>
        <mxCell id="1QHa7JC74mxXXiWMhFZg-889" value="" style="rounded=0;whiteSpace=wrap;html=1;fillColor=#7C838C;" vertex="1" parent="1">
          <mxGeometry x="290" y="310" width="10" height="10" as="geometry" />
        </mxCell>
        <mxCell id="1QHa7JC74mxXXiWMhFZg-890" value="" style="rounded=0;whiteSpace=wrap;html=1;fillColor=#7C838C;" vertex="1" parent="1">
          <mxGeometry x="300" y="310" width="10" height="10" as="geometry" />
        </mxCell>
        <mxCell id="1QHa7JC74mxXXiWMhFZg-891" value="" style="rounded=0;whiteSpace=wrap;html=1;fillColor=#7C838C;" vertex="1" parent="1">
          <mxGeometry x="310" y="310" width="10" height="10" as="geometry" />
        </mxCell>
        <mxCell id="1QHa7JC74mxXXiWMhFZg-892" value="" style="rounded=0;whiteSpace=wrap;html=1;fillColor=#573C03;" vertex="1" parent="1">
          <mxGeometry x="320" y="310" width="10" height="10" as="geometry" />
        </mxCell>
        <mxCell id="1QHa7JC74mxXXiWMhFZg-893" value="" style="rounded=0;whiteSpace=wrap;html=1;fillColor=#573C03;" vertex="1" parent="1">
          <mxGeometry x="330" y="310" width="10" height="10" as="geometry" />
        </mxCell>
        <mxCell id="1QHa7JC74mxXXiWMhFZg-894" value="" style="rounded=0;whiteSpace=wrap;html=1;fillColor=#573C03;" vertex="1" parent="1">
          <mxGeometry x="340" y="310" width="10" height="10" as="geometry" />
        </mxCell>
        <mxCell id="1QHa7JC74mxXXiWMhFZg-895" value="" style="rounded=0;whiteSpace=wrap;html=1;fillColor=#573C03;" vertex="1" parent="1">
          <mxGeometry x="350" y="310" width="10" height="10" as="geometry" />
        </mxCell>
        <mxCell id="1QHa7JC74mxXXiWMhFZg-896" value="" style="rounded=0;whiteSpace=wrap;html=1;fillColor=#BB920B;" vertex="1" parent="1">
          <mxGeometry x="360" y="310" width="10" height="10" as="geometry" />
        </mxCell>
        <mxCell id="1QHa7JC74mxXXiWMhFZg-897" value="" style="rounded=0;whiteSpace=wrap;html=1;fillColor=#BB920B;" vertex="1" parent="1">
          <mxGeometry x="370" y="310" width="10" height="10" as="geometry" />
        </mxCell>
        <mxCell id="1QHa7JC74mxXXiWMhFZg-898" value="" style="rounded=0;whiteSpace=wrap;html=1;fillColor=#BB920B;" vertex="1" parent="1">
          <mxGeometry x="380" y="310" width="10" height="10" as="geometry" />
        </mxCell>
        <mxCell id="1QHa7JC74mxXXiWMhFZg-899" value="" style="rounded=0;whiteSpace=wrap;html=1;fillColor=#BB920B;" vertex="1" parent="1">
          <mxGeometry x="390" y="310" width="10" height="10" as="geometry" />
        </mxCell>
        <mxCell id="1QHa7JC74mxXXiWMhFZg-1947" style="edgeStyle=none;rounded=0;orthogonalLoop=1;jettySize=auto;html=1;exitX=0.5;exitY=1;exitDx=0;exitDy=0;entryX=0.15;entryY=0.067;entryDx=0;entryDy=0;entryPerimeter=0;strokeColor=#FF8000;strokeWidth=1;fontFamily=Times New Roman;fontSize=12;fontColor=#573C03;endArrow=classicThin;endFill=1;fillColor=#FFFFFF;" edge="1" parent="1" source="1QHa7JC74mxXXiWMhFZg-900" target="1QHa7JC74mxXXiWMhFZg-1905">
          <mxGeometry relative="1" as="geometry" />
        </mxCell>
        <mxCell id="1QHa7JC74mxXXiWMhFZg-900" value="" style="rounded=0;whiteSpace=wrap;html=1;fillColor=#7C838C;" vertex="1" parent="1">
          <mxGeometry x="400" y="310" width="10" height="10" as="geometry" />
        </mxCell>
        <mxCell id="1QHa7JC74mxXXiWMhFZg-901" value="" style="rounded=0;whiteSpace=wrap;html=1;fillColor=#7C838C;" vertex="1" parent="1">
          <mxGeometry x="410" y="310" width="10" height="10" as="geometry" />
        </mxCell>
        <mxCell id="1QHa7JC74mxXXiWMhFZg-902" value="" style="rounded=0;whiteSpace=wrap;html=1;fillColor=#7C838C;" vertex="1" parent="1">
          <mxGeometry x="420" y="310" width="10" height="10" as="geometry" />
        </mxCell>
        <mxCell id="1QHa7JC74mxXXiWMhFZg-903" value="" style="rounded=0;whiteSpace=wrap;html=1;fillColor=#7C838C;" vertex="1" parent="1">
          <mxGeometry x="430" y="310" width="10" height="10" as="geometry" />
        </mxCell>
        <mxCell id="1QHa7JC74mxXXiWMhFZg-904" value="" style="rounded=0;whiteSpace=wrap;html=1;fillColor=#88A8BF;" vertex="1" parent="1">
          <mxGeometry x="440" y="310" width="10" height="10" as="geometry" />
        </mxCell>
        <mxCell id="1QHa7JC74mxXXiWMhFZg-905" value="" style="rounded=0;whiteSpace=wrap;html=1;fillColor=#88A8BF;" vertex="1" parent="1">
          <mxGeometry x="450" y="310" width="10" height="10" as="geometry" />
        </mxCell>
        <mxCell id="1QHa7JC74mxXXiWMhFZg-906" value="" style="rounded=0;whiteSpace=wrap;html=1;fillColor=#88A8BF;" vertex="1" parent="1">
          <mxGeometry x="460" y="310" width="10" height="10" as="geometry" />
        </mxCell>
        <mxCell id="1QHa7JC74mxXXiWMhFZg-907" value="" style="rounded=0;whiteSpace=wrap;html=1;fillColor=#88A8BF;" vertex="1" parent="1">
          <mxGeometry x="470" y="310" width="10" height="10" as="geometry" />
        </mxCell>
        <mxCell id="1QHa7JC74mxXXiWMhFZg-908" value="" style="rounded=0;whiteSpace=wrap;html=1;fillColor=#BB920B;" vertex="1" parent="1">
          <mxGeometry x="480" y="310" width="10" height="10" as="geometry" />
        </mxCell>
        <mxCell id="1QHa7JC74mxXXiWMhFZg-909" value="" style="rounded=0;whiteSpace=wrap;html=1;fillColor=#BB920B;" vertex="1" parent="1">
          <mxGeometry x="490" y="310" width="10" height="10" as="geometry" />
        </mxCell>
        <mxCell id="1QHa7JC74mxXXiWMhFZg-910" value="" style="rounded=0;whiteSpace=wrap;html=1;fillColor=#BB920B;" vertex="1" parent="1">
          <mxGeometry x="500" y="310" width="10" height="10" as="geometry" />
        </mxCell>
        <mxCell id="1QHa7JC74mxXXiWMhFZg-911" value="" style="rounded=0;whiteSpace=wrap;html=1;fillColor=#BB920B;" vertex="1" parent="1">
          <mxGeometry x="510" y="310" width="10" height="10" as="geometry" />
        </mxCell>
        <mxCell id="1QHa7JC74mxXXiWMhFZg-1950" style="edgeStyle=none;rounded=0;orthogonalLoop=1;jettySize=auto;html=1;exitX=0.5;exitY=1;exitDx=0;exitDy=0;entryX=0.119;entryY=-0.122;entryDx=0;entryDy=0;entryPerimeter=0;strokeColor=#FF8000;strokeWidth=1;fontFamily=Times New Roman;fontSize=12;fontColor=#573C03;endArrow=classicThin;endFill=1;fillColor=#FFFFFF;" edge="1" parent="1" source="1QHa7JC74mxXXiWMhFZg-912" target="1QHa7JC74mxXXiWMhFZg-1917">
          <mxGeometry relative="1" as="geometry" />
        </mxCell>
        <mxCell id="1QHa7JC74mxXXiWMhFZg-912" value="" style="rounded=0;whiteSpace=wrap;html=1;fillColor=#573C03;" vertex="1" parent="1">
          <mxGeometry x="520" y="310" width="10" height="10" as="geometry" />
        </mxCell>
        <mxCell id="1QHa7JC74mxXXiWMhFZg-913" value="" style="rounded=0;whiteSpace=wrap;html=1;fillColor=#573C03;" vertex="1" parent="1">
          <mxGeometry x="530" y="310" width="10" height="10" as="geometry" />
        </mxCell>
        <mxCell id="1QHa7JC74mxXXiWMhFZg-914" value="" style="rounded=0;whiteSpace=wrap;html=1;fillColor=#573C03;" vertex="1" parent="1">
          <mxGeometry x="540" y="310" width="10" height="10" as="geometry" />
        </mxCell>
        <mxCell id="1QHa7JC74mxXXiWMhFZg-915" value="" style="rounded=0;whiteSpace=wrap;html=1;fillColor=#573C03;" vertex="1" parent="1">
          <mxGeometry x="550" y="310" width="10" height="10" as="geometry" />
        </mxCell>
        <mxCell id="1QHa7JC74mxXXiWMhFZg-1951" style="edgeStyle=none;rounded=0;orthogonalLoop=1;jettySize=auto;html=1;exitX=0.5;exitY=1;exitDx=0;exitDy=0;entryX=0.5;entryY=0;entryDx=0;entryDy=0;strokeColor=#FF8000;strokeWidth=1;fontFamily=Times New Roman;fontSize=12;fontColor=#573C03;endArrow=classicThin;endFill=1;fillColor=#FFFFFF;" edge="1" parent="1" source="1QHa7JC74mxXXiWMhFZg-916" target="1QHa7JC74mxXXiWMhFZg-1921">
          <mxGeometry relative="1" as="geometry" />
        </mxCell>
        <mxCell id="1QHa7JC74mxXXiWMhFZg-916" value="" style="rounded=0;whiteSpace=wrap;html=1;fillColor=#88A8BF;" vertex="1" parent="1">
          <mxGeometry x="560" y="310" width="10" height="10" as="geometry" />
        </mxCell>
        <mxCell id="1QHa7JC74mxXXiWMhFZg-917" value="" style="rounded=0;whiteSpace=wrap;html=1;fillColor=#88A8BF;" vertex="1" parent="1">
          <mxGeometry x="570" y="310" width="10" height="10" as="geometry" />
        </mxCell>
        <mxCell id="1QHa7JC74mxXXiWMhFZg-918" value="" style="rounded=0;whiteSpace=wrap;html=1;fillColor=#88A8BF;" vertex="1" parent="1">
          <mxGeometry x="580" y="310" width="10" height="10" as="geometry" />
        </mxCell>
        <mxCell id="1QHa7JC74mxXXiWMhFZg-919" value="" style="rounded=0;whiteSpace=wrap;html=1;fillColor=#88A8BF;" vertex="1" parent="1">
          <mxGeometry x="590" y="310" width="10" height="10" as="geometry" />
        </mxCell>
        <mxCell id="1QHa7JC74mxXXiWMhFZg-1952" style="edgeStyle=none;rounded=0;orthogonalLoop=1;jettySize=auto;html=1;exitX=0.5;exitY=1;exitDx=0;exitDy=0;entryX=0.104;entryY=-0.075;entryDx=0;entryDy=0;entryPerimeter=0;strokeColor=#FF8000;strokeWidth=1;fontFamily=Times New Roman;fontSize=12;fontColor=#573C03;endArrow=classicThin;endFill=1;fillColor=#FFFFFF;" edge="1" parent="1" source="1QHa7JC74mxXXiWMhFZg-920" target="1QHa7JC74mxXXiWMhFZg-1925">
          <mxGeometry relative="1" as="geometry" />
        </mxCell>
        <mxCell id="1QHa7JC74mxXXiWMhFZg-920" value="" style="rounded=0;whiteSpace=wrap;html=1;fillColor=#7C838C;" vertex="1" parent="1">
          <mxGeometry x="600" y="310" width="10" height="10" as="geometry" />
        </mxCell>
        <mxCell id="1QHa7JC74mxXXiWMhFZg-921" value="" style="rounded=0;whiteSpace=wrap;html=1;fillColor=#7C838C;" vertex="1" parent="1">
          <mxGeometry x="610" y="310" width="10" height="10" as="geometry" />
        </mxCell>
        <mxCell id="1QHa7JC74mxXXiWMhFZg-922" value="" style="rounded=0;whiteSpace=wrap;html=1;fillColor=#7C838C;" vertex="1" parent="1">
          <mxGeometry x="620" y="310" width="10" height="10" as="geometry" />
        </mxCell>
        <mxCell id="1QHa7JC74mxXXiWMhFZg-923" value="" style="rounded=0;whiteSpace=wrap;html=1;fillColor=#BB920B;" vertex="1" parent="1">
          <mxGeometry x="630" y="310" width="10" height="10" as="geometry" />
        </mxCell>
        <mxCell id="1QHa7JC74mxXXiWMhFZg-924" value="" style="rounded=0;whiteSpace=wrap;html=1;fillColor=#BB920B;" vertex="1" parent="1">
          <mxGeometry x="640" y="310" width="10" height="10" as="geometry" />
        </mxCell>
        <mxCell id="1QHa7JC74mxXXiWMhFZg-925" value="" style="rounded=0;whiteSpace=wrap;html=1;fillColor=#573C03;" vertex="1" parent="1">
          <mxGeometry x="650" y="310" width="10" height="10" as="geometry" />
        </mxCell>
        <mxCell id="1QHa7JC74mxXXiWMhFZg-926" value="" style="rounded=0;whiteSpace=wrap;html=1;fillColor=#573C03;" vertex="1" parent="1">
          <mxGeometry x="660" y="310" width="10" height="10" as="geometry" />
        </mxCell>
        <mxCell id="1QHa7JC74mxXXiWMhFZg-1956" style="edgeStyle=none;rounded=0;orthogonalLoop=1;jettySize=auto;html=1;exitX=0.5;exitY=1;exitDx=0;exitDy=0;entryX=0.123;entryY=-0.006;entryDx=0;entryDy=0;entryPerimeter=0;strokeColor=#FF8000;strokeWidth=1;fontFamily=Times New Roman;fontSize=12;fontColor=#573C03;endArrow=classicThin;endFill=1;fillColor=#FFFFFF;" edge="1" parent="1" source="1QHa7JC74mxXXiWMhFZg-927" target="1QHa7JC74mxXXiWMhFZg-1932">
          <mxGeometry relative="1" as="geometry" />
        </mxCell>
        <mxCell id="1QHa7JC74mxXXiWMhFZg-927" value="" style="rounded=0;whiteSpace=wrap;html=1;fillColor=#BB920B;" vertex="1" parent="1">
          <mxGeometry x="670" y="310" width="10" height="10" as="geometry" />
        </mxCell>
        <mxCell id="1QHa7JC74mxXXiWMhFZg-928" value="" style="rounded=0;whiteSpace=wrap;html=1;fillColor=#BB920B;" vertex="1" parent="1">
          <mxGeometry x="680" y="310" width="10" height="10" as="geometry" />
        </mxCell>
        <mxCell id="1QHa7JC74mxXXiWMhFZg-929" value="" style="rounded=0;whiteSpace=wrap;html=1;fillColor=#573C03;" vertex="1" parent="1">
          <mxGeometry x="690" y="310" width="10" height="10" as="geometry" />
        </mxCell>
        <mxCell id="1QHa7JC74mxXXiWMhFZg-930" value="" style="rounded=0;whiteSpace=wrap;html=1;fillColor=#573C03;" vertex="1" parent="1">
          <mxGeometry x="700" y="310" width="10" height="10" as="geometry" />
        </mxCell>
        <mxCell id="1QHa7JC74mxXXiWMhFZg-1958" style="edgeStyle=none;rounded=0;orthogonalLoop=1;jettySize=auto;html=1;exitX=0.5;exitY=1;exitDx=0;exitDy=0;entryX=1;entryY=0;entryDx=0;entryDy=0;strokeColor=#FF8000;strokeWidth=1;fontFamily=Times New Roman;fontSize=12;fontColor=#573C03;endArrow=classicThin;endFill=1;fillColor=#FFFFFF;" edge="1" parent="1" source="1QHa7JC74mxXXiWMhFZg-932" target="1QHa7JC74mxXXiWMhFZg-1936">
          <mxGeometry relative="1" as="geometry" />
        </mxCell>
        <mxCell id="1QHa7JC74mxXXiWMhFZg-932" value="" style="rounded=0;whiteSpace=wrap;html=1;fillColor=#7C838C;" vertex="1" parent="1">
          <mxGeometry x="710" y="310" width="10" height="10" as="geometry" />
        </mxCell>
        <mxCell id="1QHa7JC74mxXXiWMhFZg-933" style="edgeStyle=none;rounded=0;orthogonalLoop=1;jettySize=auto;html=1;exitX=0;exitY=1;exitDx=0;exitDy=0;entryX=0;entryY=0;entryDx=0;entryDy=0;strokeColor=#F19C99;strokeWidth=1;fontFamily=Times New Roman;fontSize=11;endArrow=none;endFill=0;fillColor=#FFFFFF;" edge="1" source="1QHa7JC74mxXXiWMhFZg-934" target="1QHa7JC74mxXXiWMhFZg-804" parent="1">
          <mxGeometry relative="1" as="geometry" />
        </mxCell>
        <mxCell id="1QHa7JC74mxXXiWMhFZg-934" value="" style="rounded=0;whiteSpace=wrap;html=1;fillColor=#093B87;" vertex="1" parent="1">
          <mxGeometry x="80" y="458" width="10" height="10" as="geometry" />
        </mxCell>
        <mxCell id="1QHa7JC74mxXXiWMhFZg-935" value="" style="rounded=0;whiteSpace=wrap;html=1;fillColor=#104997;" vertex="1" parent="1">
          <mxGeometry x="90" y="458" width="10" height="10" as="geometry" />
        </mxCell>
        <mxCell id="1QHa7JC74mxXXiWMhFZg-936" value="" style="rounded=0;whiteSpace=wrap;html=1;fillColor=#1858A7;" vertex="1" parent="1">
          <mxGeometry x="100" y="458" width="10" height="10" as="geometry" />
        </mxCell>
        <mxCell id="1QHa7JC74mxXXiWMhFZg-937" value="" style="rounded=0;whiteSpace=wrap;html=1;fillColor=#000000;" vertex="1" parent="1">
          <mxGeometry x="110" y="458" width="10" height="10" as="geometry" />
        </mxCell>
        <mxCell id="1QHa7JC74mxXXiWMhFZg-938" value="" style="rounded=0;whiteSpace=wrap;html=1;fillColor=#1858A7;" vertex="1" parent="1">
          <mxGeometry x="120" y="458" width="10" height="10" as="geometry" />
        </mxCell>
        <mxCell id="1QHa7JC74mxXXiWMhFZg-939" value="" style="rounded=0;whiteSpace=wrap;html=1;fillColor=#104793;" vertex="1" parent="1">
          <mxGeometry x="130" y="458" width="10" height="10" as="geometry" />
        </mxCell>
        <mxCell id="1QHa7JC74mxXXiWMhFZg-940" value="" style="rounded=0;whiteSpace=wrap;html=1;fillColor=#093B87;" vertex="1" parent="1">
          <mxGeometry x="140" y="458" width="10" height="10" as="geometry" />
        </mxCell>
        <mxCell id="1QHa7JC74mxXXiWMhFZg-941" value="" style="rounded=0;whiteSpace=wrap;html=1;fillColor=#042E77;" vertex="1" parent="1">
          <mxGeometry x="150" y="458" width="10" height="10" as="geometry" />
        </mxCell>
        <mxCell id="1QHa7JC74mxXXiWMhFZg-942" value="" style="rounded=0;whiteSpace=wrap;html=1;fillColor=#1858A7;" vertex="1" parent="1">
          <mxGeometry x="160" y="458" width="10" height="10" as="geometry" />
        </mxCell>
        <mxCell id="1QHa7JC74mxXXiWMhFZg-943" value="" style="rounded=0;whiteSpace=wrap;html=1;fillColor=#4997DC;" vertex="1" parent="1">
          <mxGeometry x="170" y="458" width="10" height="10" as="geometry" />
        </mxCell>
        <mxCell id="1QHa7JC74mxXXiWMhFZg-944" value="" style="rounded=0;whiteSpace=wrap;html=1;fillColor=#000000;" vertex="1" parent="1">
          <mxGeometry x="180" y="458" width="10" height="10" as="geometry" />
        </mxCell>
        <mxCell id="1QHa7JC74mxXXiWMhFZg-945" value="" style="rounded=0;whiteSpace=wrap;html=1;fillColor=#000000;" vertex="1" parent="1">
          <mxGeometry x="190" y="458" width="10" height="10" as="geometry" />
        </mxCell>
        <mxCell id="1QHa7JC74mxXXiWMhFZg-946" value="" style="rounded=0;whiteSpace=wrap;html=1;fillColor=#000000;" vertex="1" parent="1">
          <mxGeometry x="200" y="458" width="10" height="10" as="geometry" />
        </mxCell>
        <mxCell id="1QHa7JC74mxXXiWMhFZg-947" value="" style="rounded=0;whiteSpace=wrap;html=1;fillColor=#68B6EF;" vertex="1" parent="1">
          <mxGeometry x="210" y="458" width="10" height="10" as="geometry" />
        </mxCell>
        <mxCell id="1QHa7JC74mxXXiWMhFZg-948" value="" style="rounded=0;whiteSpace=wrap;html=1;fillColor=#093B87;" vertex="1" parent="1">
          <mxGeometry x="220" y="458" width="10" height="10" as="geometry" />
        </mxCell>
        <mxCell id="1QHa7JC74mxXXiWMhFZg-949" value="" style="rounded=0;whiteSpace=wrap;html=1;fillColor=#042E77;" vertex="1" parent="1">
          <mxGeometry x="230" y="458" width="10" height="10" as="geometry" />
        </mxCell>
        <mxCell id="1QHa7JC74mxXXiWMhFZg-950" value="" style="rounded=0;whiteSpace=wrap;html=1;fillColor=#2E77C4;" vertex="1" parent="1">
          <mxGeometry x="240" y="458" width="10" height="10" as="geometry" />
        </mxCell>
        <mxCell id="1QHa7JC74mxXXiWMhFZg-951" value="" style="rounded=0;whiteSpace=wrap;html=1;fillColor=#000000;" vertex="1" parent="1">
          <mxGeometry x="250" y="458" width="10" height="10" as="geometry" />
        </mxCell>
        <mxCell id="1QHa7JC74mxXXiWMhFZg-952" value="" style="rounded=0;whiteSpace=wrap;html=1;fillColor=#000000;" vertex="1" parent="1">
          <mxGeometry x="260" y="458" width="10" height="10" as="geometry" />
        </mxCell>
        <mxCell id="1QHa7JC74mxXXiWMhFZg-953" value="" style="rounded=0;whiteSpace=wrap;html=1;fillColor=#000000;" vertex="1" parent="1">
          <mxGeometry x="270" y="458" width="10" height="10" as="geometry" />
        </mxCell>
        <mxCell id="1QHa7JC74mxXXiWMhFZg-954" value="" style="rounded=0;whiteSpace=wrap;html=1;fillColor=#000000;" vertex="1" parent="1">
          <mxGeometry x="280" y="458" width="10" height="10" as="geometry" />
        </mxCell>
        <mxCell id="1QHa7JC74mxXXiWMhFZg-955" value="" style="rounded=0;whiteSpace=wrap;html=1;fillColor=#C4F6FB;" vertex="1" parent="1">
          <mxGeometry x="290" y="458" width="10" height="10" as="geometry" />
        </mxCell>
        <mxCell id="1QHa7JC74mxXXiWMhFZg-956" value="" style="rounded=0;whiteSpace=wrap;html=1;fillColor=#104997;" vertex="1" parent="1">
          <mxGeometry x="300" y="458" width="10" height="10" as="geometry" />
        </mxCell>
        <mxCell id="1QHa7JC74mxXXiWMhFZg-957" value="" style="rounded=0;whiteSpace=wrap;html=1;fillColor=#093B86;" vertex="1" parent="1">
          <mxGeometry x="310" y="458" width="10" height="10" as="geometry" />
        </mxCell>
        <mxCell id="1QHa7JC74mxXXiWMhFZg-958" value="" style="rounded=0;whiteSpace=wrap;html=1;fillColor=#000000;" vertex="1" parent="1">
          <mxGeometry x="320" y="458" width="10" height="10" as="geometry" />
        </mxCell>
        <mxCell id="1QHa7JC74mxXXiWMhFZg-959" value="" style="rounded=0;whiteSpace=wrap;html=1;fillColor=#000000;" vertex="1" parent="1">
          <mxGeometry x="330" y="458" width="10" height="10" as="geometry" />
        </mxCell>
        <mxCell id="1QHa7JC74mxXXiWMhFZg-960" value="" style="rounded=0;whiteSpace=wrap;html=1;fillColor=#000000;" vertex="1" parent="1">
          <mxGeometry x="340" y="458" width="10" height="10" as="geometry" />
        </mxCell>
        <mxCell id="1QHa7JC74mxXXiWMhFZg-961" value="" style="rounded=0;whiteSpace=wrap;html=1;fillColor=#000000;" vertex="1" parent="1">
          <mxGeometry x="350" y="458" width="10" height="10" as="geometry" />
        </mxCell>
        <mxCell id="1QHa7JC74mxXXiWMhFZg-962" value="" style="rounded=0;whiteSpace=wrap;html=1;fillColor=#000000;" vertex="1" parent="1">
          <mxGeometry x="360" y="458" width="10" height="10" as="geometry" />
        </mxCell>
        <mxCell id="1QHa7JC74mxXXiWMhFZg-963" value="" style="rounded=0;whiteSpace=wrap;html=1;fillColor=#C4F6FB;" vertex="1" parent="1">
          <mxGeometry x="370" y="458" width="10" height="10" as="geometry" />
        </mxCell>
        <mxCell id="1QHa7JC74mxXXiWMhFZg-964" value="" style="rounded=0;whiteSpace=wrap;html=1;fillColor=#104997;" vertex="1" parent="1">
          <mxGeometry x="380" y="458" width="10" height="10" as="geometry" />
        </mxCell>
        <mxCell id="1QHa7JC74mxXXiWMhFZg-965" value="" style="rounded=0;whiteSpace=wrap;html=1;fillColor=#093B86;" vertex="1" parent="1">
          <mxGeometry x="390" y="458" width="10" height="10" as="geometry" />
        </mxCell>
        <mxCell id="1QHa7JC74mxXXiWMhFZg-966" value="" style="rounded=0;whiteSpace=wrap;html=1;fillColor=#000000;" vertex="1" parent="1">
          <mxGeometry x="400" y="458" width="10" height="10" as="geometry" />
        </mxCell>
        <mxCell id="1QHa7JC74mxXXiWMhFZg-967" value="" style="rounded=0;whiteSpace=wrap;html=1;fillColor=#000000;" vertex="1" parent="1">
          <mxGeometry x="410" y="458" width="10" height="10" as="geometry" />
        </mxCell>
        <mxCell id="1QHa7JC74mxXXiWMhFZg-968" value="" style="rounded=0;whiteSpace=wrap;html=1;fillColor=#000000;" vertex="1" parent="1">
          <mxGeometry x="420" y="458" width="10" height="10" as="geometry" />
        </mxCell>
        <mxCell id="1QHa7JC74mxXXiWMhFZg-969" value="" style="rounded=0;whiteSpace=wrap;html=1;fillColor=#000000;" vertex="1" parent="1">
          <mxGeometry x="430" y="458" width="10" height="10" as="geometry" />
        </mxCell>
        <mxCell id="1QHa7JC74mxXXiWMhFZg-970" value="" style="rounded=0;whiteSpace=wrap;html=1;fillColor=#000000;" vertex="1" parent="1">
          <mxGeometry x="440" y="458" width="10" height="10" as="geometry" />
        </mxCell>
        <mxCell id="1QHa7JC74mxXXiWMhFZg-971" value="" style="rounded=0;whiteSpace=wrap;html=1;fillColor=#C4F6FB;" vertex="1" parent="1">
          <mxGeometry x="450" y="458" width="10" height="10" as="geometry" />
        </mxCell>
        <mxCell id="1QHa7JC74mxXXiWMhFZg-972" value="" style="rounded=0;whiteSpace=wrap;html=1;fillColor=#104997;" vertex="1" parent="1">
          <mxGeometry x="460" y="458" width="10" height="10" as="geometry" />
        </mxCell>
        <mxCell id="1QHa7JC74mxXXiWMhFZg-973" value="" style="rounded=0;whiteSpace=wrap;html=1;fillColor=#093B86;" vertex="1" parent="1">
          <mxGeometry x="470" y="458" width="10" height="10" as="geometry" />
        </mxCell>
        <mxCell id="1QHa7JC74mxXXiWMhFZg-974" value="" style="rounded=0;whiteSpace=wrap;html=1;fillColor=#2E77C4;" vertex="1" parent="1">
          <mxGeometry x="480" y="458" width="10" height="10" as="geometry" />
        </mxCell>
        <mxCell id="1QHa7JC74mxXXiWMhFZg-975" value="" style="rounded=0;whiteSpace=wrap;html=1;fillColor=#000000;" vertex="1" parent="1">
          <mxGeometry x="490" y="458" width="10" height="10" as="geometry" />
        </mxCell>
        <mxCell id="1QHa7JC74mxXXiWMhFZg-976" value="" style="rounded=0;whiteSpace=wrap;html=1;fillColor=#000000;" vertex="1" parent="1">
          <mxGeometry x="500" y="458" width="10" height="10" as="geometry" />
        </mxCell>
        <mxCell id="1QHa7JC74mxXXiWMhFZg-977" value="" style="rounded=0;whiteSpace=wrap;html=1;fillColor=#000000;" vertex="1" parent="1">
          <mxGeometry x="510" y="458" width="10" height="10" as="geometry" />
        </mxCell>
        <mxCell id="1QHa7JC74mxXXiWMhFZg-978" value="" style="rounded=0;whiteSpace=wrap;html=1;fillColor=#000000;" vertex="1" parent="1">
          <mxGeometry x="520" y="458" width="10" height="10" as="geometry" />
        </mxCell>
        <mxCell id="1QHa7JC74mxXXiWMhFZg-979" value="" style="rounded=0;whiteSpace=wrap;html=1;fillColor=#C4F6FB;" vertex="1" parent="1">
          <mxGeometry x="530" y="458" width="10" height="10" as="geometry" />
        </mxCell>
        <mxCell id="1QHa7JC74mxXXiWMhFZg-980" value="" style="rounded=0;whiteSpace=wrap;html=1;fillColor=#104997;" vertex="1" parent="1">
          <mxGeometry x="540" y="458" width="10" height="10" as="geometry" />
        </mxCell>
        <mxCell id="1QHa7JC74mxXXiWMhFZg-981" value="" style="rounded=0;whiteSpace=wrap;html=1;fillColor=#093B86;" vertex="1" parent="1">
          <mxGeometry x="550" y="458" width="10" height="10" as="geometry" />
        </mxCell>
        <mxCell id="1QHa7JC74mxXXiWMhFZg-982" value="" style="rounded=0;whiteSpace=wrap;html=1;fillColor=#1858A7;" vertex="1" parent="1">
          <mxGeometry x="560" y="458" width="10" height="10" as="geometry" />
        </mxCell>
        <mxCell id="1QHa7JC74mxXXiWMhFZg-983" value="" style="rounded=0;whiteSpace=wrap;html=1;fillColor=#4997DC;" vertex="1" parent="1">
          <mxGeometry x="570" y="458" width="10" height="10" as="geometry" />
        </mxCell>
        <mxCell id="1QHa7JC74mxXXiWMhFZg-984" value="" style="rounded=0;whiteSpace=wrap;html=1;fillColor=#000000;" vertex="1" parent="1">
          <mxGeometry x="580" y="458" width="10" height="10" as="geometry" />
        </mxCell>
        <mxCell id="1QHa7JC74mxXXiWMhFZg-985" value="" style="rounded=0;whiteSpace=wrap;html=1;fillColor=#000000;" vertex="1" parent="1">
          <mxGeometry x="590" y="458" width="10" height="10" as="geometry" />
        </mxCell>
        <mxCell id="1QHa7JC74mxXXiWMhFZg-986" value="" style="rounded=0;whiteSpace=wrap;html=1;fillColor=#000000;" vertex="1" parent="1">
          <mxGeometry x="600" y="458" width="10" height="10" as="geometry" />
        </mxCell>
        <mxCell id="1QHa7JC74mxXXiWMhFZg-987" value="" style="rounded=0;whiteSpace=wrap;html=1;fillColor=#68B6EF;" vertex="1" parent="1">
          <mxGeometry x="610" y="458" width="10" height="10" as="geometry" />
        </mxCell>
        <mxCell id="1QHa7JC74mxXXiWMhFZg-988" value="" style="rounded=0;whiteSpace=wrap;html=1;fillColor=#093B87;" vertex="1" parent="1">
          <mxGeometry x="620" y="458" width="10" height="10" as="geometry" />
        </mxCell>
        <mxCell id="1QHa7JC74mxXXiWMhFZg-989" value="" style="rounded=0;whiteSpace=wrap;html=1;fillColor=#042E77;" vertex="1" parent="1">
          <mxGeometry x="630" y="458" width="10" height="10" as="geometry" />
        </mxCell>
        <mxCell id="1QHa7JC74mxXXiWMhFZg-990" value="" style="rounded=0;whiteSpace=wrap;html=1;fillColor=#093B87;" vertex="1" parent="1">
          <mxGeometry x="640" y="458" width="10" height="10" as="geometry" />
        </mxCell>
        <mxCell id="1QHa7JC74mxXXiWMhFZg-991" value="" style="rounded=0;whiteSpace=wrap;html=1;fillColor=#104997;" vertex="1" parent="1">
          <mxGeometry x="650" y="458" width="10" height="10" as="geometry" />
        </mxCell>
        <mxCell id="1QHa7JC74mxXXiWMhFZg-992" value="" style="rounded=0;whiteSpace=wrap;html=1;fillColor=#1858A7;" vertex="1" parent="1">
          <mxGeometry x="660" y="458" width="10" height="10" as="geometry" />
        </mxCell>
        <mxCell id="1QHa7JC74mxXXiWMhFZg-993" value="" style="rounded=0;whiteSpace=wrap;html=1;fillColor=#000000;" vertex="1" parent="1">
          <mxGeometry x="670" y="458" width="10" height="10" as="geometry" />
        </mxCell>
        <mxCell id="1QHa7JC74mxXXiWMhFZg-994" value="" style="rounded=0;whiteSpace=wrap;html=1;fillColor=#1858A7;" vertex="1" parent="1">
          <mxGeometry x="680" y="458" width="10" height="10" as="geometry" />
        </mxCell>
        <mxCell id="1QHa7JC74mxXXiWMhFZg-995" value="" style="rounded=0;whiteSpace=wrap;html=1;fillColor=#104793;" vertex="1" parent="1">
          <mxGeometry x="690" y="458" width="10" height="10" as="geometry" />
        </mxCell>
        <mxCell id="1QHa7JC74mxXXiWMhFZg-996" value="" style="rounded=0;whiteSpace=wrap;html=1;fillColor=#093B87;" vertex="1" parent="1">
          <mxGeometry x="700" y="458" width="10" height="10" as="geometry" />
        </mxCell>
        <mxCell id="1QHa7JC74mxXXiWMhFZg-997" style="edgeStyle=none;rounded=0;orthogonalLoop=1;jettySize=auto;html=1;exitX=1;exitY=1;exitDx=0;exitDy=0;entryX=1;entryY=0;entryDx=0;entryDy=0;strokeColor=#F19C99;strokeWidth=1;fontFamily=Times New Roman;fontSize=11;endArrow=none;endFill=0;fillColor=#FFFFFF;" edge="1" source="1QHa7JC74mxXXiWMhFZg-998" target="1QHa7JC74mxXXiWMhFZg-811" parent="1">
          <mxGeometry relative="1" as="geometry" />
        </mxCell>
        <mxCell id="1QHa7JC74mxXXiWMhFZg-998" value="" style="rounded=0;whiteSpace=wrap;html=1;fillColor=#042E77;" vertex="1" parent="1">
          <mxGeometry x="710" y="458" width="10" height="10" as="geometry" />
        </mxCell>
        <mxCell id="1QHa7JC74mxXXiWMhFZg-999" value="Sequentialize" style="text;html=1;strokeColor=none;fillColor=none;align=center;verticalAlign=middle;whiteSpace=wrap;rounded=0;fontFamily=Times New Roman;fontSize=11;" vertex="1" parent="1">
          <mxGeometry x="230" y="273" width="100" height="30" as="geometry" />
        </mxCell>
        <mxCell id="1QHa7JC74mxXXiWMhFZg-1000" value="Reshape" style="text;html=1;strokeColor=none;fillColor=none;align=center;verticalAlign=middle;whiteSpace=wrap;rounded=0;fontFamily=Times New Roman;fontSize=11;" vertex="1" parent="1">
          <mxGeometry x="465" y="475" width="100" height="30" as="geometry" />
        </mxCell>
        <mxCell id="1QHa7JC74mxXXiWMhFZg-1292" value="" style="curved=1;endArrow=none;html=1;rounded=0;strokeColor=#7C838C;strokeWidth=1;fontFamily=Times New Roman;fontSize=15;fillColor=#FFFFFF;endFill=0;" edge="1" parent="1">
          <mxGeometry width="50" height="50" relative="1" as="geometry">
            <mxPoint x="135" y="365" as="sourcePoint" />
            <mxPoint x="195" y="365" as="targetPoint" />
            <Array as="points">
              <mxPoint x="145" y="375" />
              <mxPoint x="155" y="355" />
              <mxPoint x="155" y="375" />
              <mxPoint x="175" y="355" />
              <mxPoint x="175" y="375" />
              <mxPoint x="185" y="355" />
            </Array>
          </mxGeometry>
        </mxCell>
        <mxCell id="1QHa7JC74mxXXiWMhFZg-1293" value="" style="curved=1;endArrow=none;html=1;rounded=0;strokeColor=#88A8BF;strokeWidth=1;fontFamily=Times New Roman;fontSize=15;fillColor=#FFFFFF;endFill=0;" edge="1" parent="1">
          <mxGeometry width="50" height="50" relative="1" as="geometry">
            <mxPoint x="135" y="385" as="sourcePoint" />
            <mxPoint x="195" y="385" as="targetPoint" />
            <Array as="points">
              <mxPoint x="145" y="395" />
              <mxPoint x="155" y="375" />
              <mxPoint x="165" y="390" />
              <mxPoint x="175" y="390" />
              <mxPoint x="185" y="375" />
            </Array>
          </mxGeometry>
        </mxCell>
        <mxCell id="1QHa7JC74mxXXiWMhFZg-1294" value="" style="curved=1;endArrow=none;html=1;rounded=0;strokeColor=#BB920B;strokeWidth=1;fontFamily=Times New Roman;fontSize=15;fillColor=#FFFFFF;endFill=0;" edge="1" parent="1">
          <mxGeometry width="50" height="50" relative="1" as="geometry">
            <mxPoint x="135" y="405" as="sourcePoint" />
            <mxPoint x="195" y="405" as="targetPoint" />
            <Array as="points">
              <mxPoint x="145" y="400" />
              <mxPoint x="145" y="415" />
              <mxPoint x="165" y="395" />
              <mxPoint x="175" y="415" />
              <mxPoint x="185" y="395" />
            </Array>
          </mxGeometry>
        </mxCell>
        <mxCell id="1QHa7JC74mxXXiWMhFZg-1295" value="" style="curved=1;endArrow=none;html=1;rounded=0;strokeColor=#573C03;strokeWidth=1;fontFamily=Times New Roman;fontSize=15;fillColor=#FFFFFF;endFill=0;" edge="1" parent="1">
          <mxGeometry width="50" height="50" relative="1" as="geometry">
            <mxPoint x="135" y="425" as="sourcePoint" />
            <mxPoint x="195" y="425" as="targetPoint" />
            <Array as="points">
              <mxPoint x="145" y="435" />
              <mxPoint x="155" y="415" />
              <mxPoint x="165" y="435" />
              <mxPoint x="175" y="415" />
              <mxPoint x="185" y="440" />
              <mxPoint x="185" y="415" />
            </Array>
          </mxGeometry>
        </mxCell>
        <mxCell id="1QHa7JC74mxXXiWMhFZg-1296" value="&lt;font style=&quot;font-size: 12px;&quot;&gt;Dynamic Partition &amp;amp; Colorize on Threads&lt;/font&gt;" style="text;html=1;strokeColor=none;fillColor=none;align=center;verticalAlign=middle;whiteSpace=wrap;rounded=0;dashed=1;dashPattern=1 4;fontFamily=Times New Roman;fontSize=15;" vertex="1" parent="1">
          <mxGeometry x="80" y="428" width="240" height="30" as="geometry" />
        </mxCell>
        <mxCell id="1QHa7JC74mxXXiWMhFZg-1370" value="&lt;font color=&quot;#7c838c&quot;&gt;T0:&lt;/font&gt;" style="text;html=1;strokeColor=none;fillColor=none;align=center;verticalAlign=middle;whiteSpace=wrap;rounded=0;dashed=1;dashPattern=1 4;fontFamily=Times New Roman;fontSize=12;" vertex="1" parent="1">
          <mxGeometry x="80" y="350" width="60" height="30" as="geometry" />
        </mxCell>
        <mxCell id="1QHa7JC74mxXXiWMhFZg-1371" value="&lt;font color=&quot;#88a8bf&quot;&gt;T1:&lt;/font&gt;" style="text;html=1;strokeColor=none;fillColor=none;align=center;verticalAlign=middle;whiteSpace=wrap;rounded=0;dashed=1;dashPattern=1 4;fontFamily=Times New Roman;fontSize=12;" vertex="1" parent="1">
          <mxGeometry x="80" y="370" width="60" height="30" as="geometry" />
        </mxCell>
        <mxCell id="1QHa7JC74mxXXiWMhFZg-1372" value="&lt;font color=&quot;#bb920b&quot;&gt;T2:&lt;/font&gt;" style="text;html=1;strokeColor=none;fillColor=none;align=center;verticalAlign=middle;whiteSpace=wrap;rounded=0;dashed=1;dashPattern=1 4;fontFamily=Times New Roman;fontSize=12;" vertex="1" parent="1">
          <mxGeometry x="80" y="390" width="60" height="30" as="geometry" />
        </mxCell>
        <mxCell id="1QHa7JC74mxXXiWMhFZg-1373" value="&lt;font color=&quot;#573c03&quot;&gt;T3:&lt;/font&gt;" style="text;html=1;strokeColor=none;fillColor=none;align=center;verticalAlign=middle;whiteSpace=wrap;rounded=0;dashed=1;dashPattern=1 4;fontFamily=Times New Roman;fontSize=12;" vertex="1" parent="1">
          <mxGeometry x="80" y="410" width="60" height="30" as="geometry" />
        </mxCell>
        <mxCell id="1QHa7JC74mxXXiWMhFZg-1873" value="" style="rounded=0;whiteSpace=wrap;html=1;fillColor=#093B87;strokeColor=#7C838C;" vertex="1" parent="1">
          <mxGeometry x="210" y="360" width="10" height="10" as="geometry" />
        </mxCell>
        <mxCell id="1QHa7JC74mxXXiWMhFZg-1874" value="" style="rounded=0;whiteSpace=wrap;html=1;fillColor=#104997;strokeColor=#7C838C;" vertex="1" parent="1">
          <mxGeometry x="220" y="360" width="10" height="10" as="geometry" />
        </mxCell>
        <mxCell id="1QHa7JC74mxXXiWMhFZg-1875" value="" style="rounded=0;whiteSpace=wrap;html=1;fillColor=#1858A7;strokeColor=#7C838C;" vertex="1" parent="1">
          <mxGeometry x="230" y="360" width="10" height="10" as="geometry" />
        </mxCell>
        <mxCell id="1QHa7JC74mxXXiWMhFZg-1876" value="" style="rounded=0;whiteSpace=wrap;html=1;fillColor=#000000;strokeColor=#7C838C;" vertex="1" parent="1">
          <mxGeometry x="240" y="360" width="40" height="10" as="geometry" />
        </mxCell>
        <mxCell id="1QHa7JC74mxXXiWMhFZg-1877" value="" style="rounded=0;whiteSpace=wrap;html=1;fillColor=#1858A7;strokeColor=#88A8BF;" vertex="1" parent="1">
          <mxGeometry x="210" y="380" width="10" height="10" as="geometry" />
        </mxCell>
        <mxCell id="1QHa7JC74mxXXiWMhFZg-1878" value="" style="rounded=0;whiteSpace=wrap;html=1;fillColor=#104793;strokeColor=#88A8BF;" vertex="1" parent="1">
          <mxGeometry x="220" y="380" width="10" height="10" as="geometry" />
        </mxCell>
        <mxCell id="1QHa7JC74mxXXiWMhFZg-1879" value="" style="rounded=0;whiteSpace=wrap;html=1;fillColor=#093B87;strokeColor=#88A8BF;" vertex="1" parent="1">
          <mxGeometry x="230" y="380" width="10" height="10" as="geometry" />
        </mxCell>
        <mxCell id="1QHa7JC74mxXXiWMhFZg-1880" value="" style="rounded=0;whiteSpace=wrap;html=1;fillColor=#042E77;strokeColor=#88A8BF;" vertex="1" parent="1">
          <mxGeometry x="240" y="380" width="10" height="10" as="geometry" />
        </mxCell>
        <mxCell id="1QHa7JC74mxXXiWMhFZg-1881" value="" style="rounded=0;whiteSpace=wrap;html=1;fillColor=#1858A7;strokeColor=#BB920B;" vertex="1" parent="1">
          <mxGeometry x="210" y="400" width="10" height="10" as="geometry" />
        </mxCell>
        <mxCell id="1QHa7JC74mxXXiWMhFZg-1882" value="" style="rounded=0;whiteSpace=wrap;html=1;fillColor=#4997DC;strokeColor=#BB920B;" vertex="1" parent="1">
          <mxGeometry x="220" y="400" width="10" height="10" as="geometry" />
        </mxCell>
        <mxCell id="1QHa7JC74mxXXiWMhFZg-1883" value="" style="rounded=0;whiteSpace=wrap;html=1;fillColor=#000000;strokeColor=#BB920B;" vertex="1" parent="1">
          <mxGeometry x="230" y="400" width="40" height="10" as="geometry" />
        </mxCell>
        <mxCell id="1QHa7JC74mxXXiWMhFZg-1884" value="" style="rounded=0;whiteSpace=wrap;html=1;fillColor=#000000;strokeColor=#BB920B;" vertex="1" parent="1">
          <mxGeometry x="270" y="400" width="40" height="10" as="geometry" />
        </mxCell>
        <mxCell id="1QHa7JC74mxXXiWMhFZg-1885" value="" style="rounded=0;whiteSpace=wrap;html=1;fillColor=#000000;strokeColor=#573C03;" vertex="1" parent="1">
          <mxGeometry x="210" y="420" width="40" height="10" as="geometry" />
        </mxCell>
        <mxCell id="1QHa7JC74mxXXiWMhFZg-1886" value="" style="rounded=0;whiteSpace=wrap;html=1;fillColor=#68B6EF;strokeColor=#573C03;" vertex="1" parent="1">
          <mxGeometry x="250" y="420" width="10" height="10" as="geometry" />
        </mxCell>
        <mxCell id="1QHa7JC74mxXXiWMhFZg-1887" value="" style="rounded=0;whiteSpace=wrap;html=1;fillColor=#093B87;strokeColor=#573C03;" vertex="1" parent="1">
          <mxGeometry x="260" y="420" width="10" height="10" as="geometry" />
        </mxCell>
        <mxCell id="1QHa7JC74mxXXiWMhFZg-1888" value="" style="rounded=0;whiteSpace=wrap;html=1;fillColor=#042E77;strokeColor=#573C03;" vertex="1" parent="1">
          <mxGeometry x="270" y="420" width="10" height="10" as="geometry" />
        </mxCell>
        <mxCell id="1QHa7JC74mxXXiWMhFZg-1889" value="" style="rounded=0;whiteSpace=wrap;html=1;fillColor=#2E77C4;strokeColor=#88A8BF;" vertex="1" parent="1">
          <mxGeometry x="270" y="380" width="10" height="10" as="geometry" />
        </mxCell>
        <mxCell id="1QHa7JC74mxXXiWMhFZg-1890" value="" style="rounded=0;whiteSpace=wrap;html=1;fillColor=#000000;strokeColor=#88A8BF;" vertex="1" parent="1">
          <mxGeometry x="280" y="380" width="40" height="10" as="geometry" />
        </mxCell>
        <mxCell id="1QHa7JC74mxXXiWMhFZg-1891" value="" style="rounded=0;whiteSpace=wrap;html=1;fillColor=#000000;strokeColor=#88A8BF;" vertex="1" parent="1">
          <mxGeometry x="360" y="380" width="40" height="10" as="geometry" />
        </mxCell>
        <mxCell id="1QHa7JC74mxXXiWMhFZg-1892" value="" style="rounded=0;whiteSpace=wrap;html=1;fillColor=#000000;strokeColor=#88A8BF;" vertex="1" parent="1">
          <mxGeometry x="320" y="380" width="40" height="10" as="geometry" />
        </mxCell>
        <mxCell id="1QHa7JC74mxXXiWMhFZg-1893" value="" style="rounded=0;whiteSpace=wrap;html=1;fillColor=#000000;strokeColor=#7C838C;" vertex="1" parent="1">
          <mxGeometry x="300" y="360" width="10" height="10" as="geometry" />
        </mxCell>
        <mxCell id="1QHa7JC74mxXXiWMhFZg-1894" value="" style="rounded=0;whiteSpace=wrap;html=1;fillColor=#C4F6FB;strokeColor=#7C838C;" vertex="1" parent="1">
          <mxGeometry x="310" y="360" width="10" height="10" as="geometry" />
        </mxCell>
        <mxCell id="1QHa7JC74mxXXiWMhFZg-1895" value="" style="rounded=0;whiteSpace=wrap;html=1;fillColor=#104997;strokeColor=#7C838C;" vertex="1" parent="1">
          <mxGeometry x="320" y="360" width="10" height="10" as="geometry" />
        </mxCell>
        <mxCell id="1QHa7JC74mxXXiWMhFZg-1896" value="" style="rounded=0;whiteSpace=wrap;html=1;fillColor=#093B86;strokeColor=#7C838C;" vertex="1" parent="1">
          <mxGeometry x="330" y="360" width="10" height="10" as="geometry" />
        </mxCell>
        <mxCell id="1QHa7JC74mxXXiWMhFZg-1897" value="" style="rounded=0;whiteSpace=wrap;html=1;fillColor=#000000;strokeColor=#573C03;" vertex="1" parent="1">
          <mxGeometry x="300" y="420" width="40" height="10" as="geometry" />
        </mxCell>
        <mxCell id="1QHa7JC74mxXXiWMhFZg-1898" value="" style="rounded=0;whiteSpace=wrap;html=1;fillColor=#000000;strokeColor=#573C03;" vertex="1" parent="1">
          <mxGeometry x="420" y="420" width="40" height="10" as="geometry" />
        </mxCell>
        <mxCell id="1QHa7JC74mxXXiWMhFZg-1899" value="" style="rounded=0;whiteSpace=wrap;html=1;fillColor=#000000;strokeColor=#573C03;" vertex="1" parent="1">
          <mxGeometry x="380" y="420" width="40" height="10" as="geometry" />
        </mxCell>
        <mxCell id="1QHa7JC74mxXXiWMhFZg-1900" value="" style="rounded=0;whiteSpace=wrap;html=1;fillColor=#000000;strokeColor=#573C03;" vertex="1" parent="1">
          <mxGeometry x="340" y="420" width="40" height="10" as="geometry" />
        </mxCell>
        <mxCell id="1QHa7JC74mxXXiWMhFZg-1901" value="" style="rounded=0;whiteSpace=wrap;html=1;fillColor=#000000;strokeColor=#BB920B;" vertex="1" parent="1">
          <mxGeometry x="330" y="400" width="40" height="10" as="geometry" />
        </mxCell>
        <mxCell id="1QHa7JC74mxXXiWMhFZg-1902" value="" style="rounded=0;whiteSpace=wrap;html=1;fillColor=#C4F6FB;strokeColor=#BB920B;" vertex="1" parent="1">
          <mxGeometry x="370" y="400" width="10" height="10" as="geometry" />
        </mxCell>
        <mxCell id="1QHa7JC74mxXXiWMhFZg-1903" value="" style="rounded=0;whiteSpace=wrap;html=1;fillColor=#104997;strokeColor=#BB920B;" vertex="1" parent="1">
          <mxGeometry x="380" y="400" width="10" height="10" as="geometry" />
        </mxCell>
        <mxCell id="1QHa7JC74mxXXiWMhFZg-1904" value="" style="rounded=0;whiteSpace=wrap;html=1;fillColor=#093B86;strokeColor=#BB920B;" vertex="1" parent="1">
          <mxGeometry x="390" y="400" width="10" height="10" as="geometry" />
        </mxCell>
        <mxCell id="1QHa7JC74mxXXiWMhFZg-1905" value="" style="rounded=0;whiteSpace=wrap;html=1;fillColor=#000000;strokeColor=#7C838C;" vertex="1" parent="1">
          <mxGeometry x="360" y="360" width="40" height="10" as="geometry" />
        </mxCell>
        <mxCell id="1QHa7JC74mxXXiWMhFZg-1906" value="" style="rounded=0;whiteSpace=wrap;html=1;fillColor=#000000;strokeColor=#7C838C;" vertex="1" parent="1">
          <mxGeometry x="480" y="360" width="40" height="10" as="geometry" />
        </mxCell>
        <mxCell id="1QHa7JC74mxXXiWMhFZg-1907" value="" style="rounded=0;whiteSpace=wrap;html=1;fillColor=#000000;strokeColor=#7C838C;" vertex="1" parent="1">
          <mxGeometry x="440" y="360" width="40" height="10" as="geometry" />
        </mxCell>
        <mxCell id="1QHa7JC74mxXXiWMhFZg-1908" value="" style="rounded=0;whiteSpace=wrap;html=1;fillColor=#000000;strokeColor=#7C838C;" vertex="1" parent="1">
          <mxGeometry x="400" y="360" width="40" height="10" as="geometry" />
        </mxCell>
        <mxCell id="1QHa7JC74mxXXiWMhFZg-1909" value="" style="rounded=0;whiteSpace=wrap;html=1;fillColor=#000000;strokeColor=#88A8BF;" vertex="1" parent="1">
          <mxGeometry x="420" y="380" width="40" height="10" as="geometry" />
        </mxCell>
        <mxCell id="1QHa7JC74mxXXiWMhFZg-1910" value="" style="rounded=0;whiteSpace=wrap;html=1;fillColor=#C4F6FB;strokeColor=#88A8BF;" vertex="1" parent="1">
          <mxGeometry x="460" y="380" width="10" height="10" as="geometry" />
        </mxCell>
        <mxCell id="1QHa7JC74mxXXiWMhFZg-1911" value="" style="rounded=0;whiteSpace=wrap;html=1;fillColor=#104997;strokeColor=#88A8BF;" vertex="1" parent="1">
          <mxGeometry x="470" y="380" width="10" height="10" as="geometry" />
        </mxCell>
        <mxCell id="1QHa7JC74mxXXiWMhFZg-1912" value="" style="rounded=0;whiteSpace=wrap;html=1;fillColor=#093B86;strokeColor=#88A8BF;" vertex="1" parent="1">
          <mxGeometry x="480" y="380" width="10" height="10" as="geometry" />
        </mxCell>
        <mxCell id="1QHa7JC74mxXXiWMhFZg-1913" value="" style="rounded=0;whiteSpace=wrap;html=1;fillColor=#2E77C4;strokeColor=#BB920B;" vertex="1" parent="1">
          <mxGeometry x="420" y="400" width="10" height="10" as="geometry" />
        </mxCell>
        <mxCell id="1QHa7JC74mxXXiWMhFZg-1914" value="" style="rounded=0;whiteSpace=wrap;html=1;fillColor=#000000;strokeColor=#BB920B;" vertex="1" parent="1">
          <mxGeometry x="510" y="400" width="40" height="10" as="geometry" />
        </mxCell>
        <mxCell id="1QHa7JC74mxXXiWMhFZg-1915" value="" style="rounded=0;whiteSpace=wrap;html=1;fillColor=#000000;strokeColor=#BB920B;" vertex="1" parent="1">
          <mxGeometry x="470" y="400" width="40" height="10" as="geometry" />
        </mxCell>
        <mxCell id="1QHa7JC74mxXXiWMhFZg-1916" value="" style="rounded=0;whiteSpace=wrap;html=1;fillColor=#000000;strokeColor=#BB920B;" vertex="1" parent="1">
          <mxGeometry x="430" y="400" width="40" height="10" as="geometry" />
        </mxCell>
        <mxCell id="1QHa7JC74mxXXiWMhFZg-1917" value="" style="rounded=0;whiteSpace=wrap;html=1;fillColor=#000000;strokeColor=#573C03;" vertex="1" parent="1">
          <mxGeometry x="480" y="420" width="40" height="10" as="geometry" />
        </mxCell>
        <mxCell id="1QHa7JC74mxXXiWMhFZg-1918" value="" style="rounded=0;whiteSpace=wrap;html=1;fillColor=#C4F6FB;strokeColor=#573C03;" vertex="1" parent="1">
          <mxGeometry x="520" y="420" width="10" height="10" as="geometry" />
        </mxCell>
        <mxCell id="1QHa7JC74mxXXiWMhFZg-1919" value="" style="rounded=0;whiteSpace=wrap;html=1;fillColor=#104997;strokeColor=#573C03;" vertex="1" parent="1">
          <mxGeometry x="530" y="420" width="10" height="10" as="geometry" />
        </mxCell>
        <mxCell id="1QHa7JC74mxXXiWMhFZg-1920" value="" style="rounded=0;whiteSpace=wrap;html=1;fillColor=#093B86;strokeColor=#573C03;" vertex="1" parent="1">
          <mxGeometry x="540" y="420" width="10" height="10" as="geometry" />
        </mxCell>
        <mxCell id="1QHa7JC74mxXXiWMhFZg-1921" value="" style="rounded=0;whiteSpace=wrap;html=1;fillColor=#1858A7;strokeColor=#88A8BF;" vertex="1" parent="1">
          <mxGeometry x="510" y="380" width="10" height="10" as="geometry" />
        </mxCell>
        <mxCell id="1QHa7JC74mxXXiWMhFZg-1922" value="" style="rounded=0;whiteSpace=wrap;html=1;fillColor=#4997DC;strokeColor=#88A8BF;" vertex="1" parent="1">
          <mxGeometry x="520" y="380" width="10" height="10" as="geometry" />
        </mxCell>
        <mxCell id="1QHa7JC74mxXXiWMhFZg-1923" value="" style="rounded=0;whiteSpace=wrap;html=1;fillColor=#000000;strokeColor=#88A8BF;" vertex="1" parent="1">
          <mxGeometry x="570" y="380" width="40" height="10" as="geometry" />
        </mxCell>
        <mxCell id="1QHa7JC74mxXXiWMhFZg-1924" value="" style="rounded=0;whiteSpace=wrap;html=1;fillColor=#000000;strokeColor=#88A8BF;" vertex="1" parent="1">
          <mxGeometry x="530" y="380" width="40" height="10" as="geometry" />
        </mxCell>
        <mxCell id="1QHa7JC74mxXXiWMhFZg-1925" value="" style="rounded=0;whiteSpace=wrap;html=1;fillColor=#000000;strokeColor=#7C838C;" vertex="1" parent="1">
          <mxGeometry x="540" y="360" width="40" height="10" as="geometry" />
        </mxCell>
        <mxCell id="1QHa7JC74mxXXiWMhFZg-1926" value="" style="rounded=0;whiteSpace=wrap;html=1;fillColor=#68B6EF;strokeColor=#7C838C;" vertex="1" parent="1">
          <mxGeometry x="580" y="360" width="10" height="10" as="geometry" />
        </mxCell>
        <mxCell id="1QHa7JC74mxXXiWMhFZg-1927" value="" style="rounded=0;whiteSpace=wrap;html=1;fillColor=#093B87;strokeColor=#7C838C;" vertex="1" parent="1">
          <mxGeometry x="590" y="360" width="10" height="10" as="geometry" />
        </mxCell>
        <mxCell id="1QHa7JC74mxXXiWMhFZg-1928" value="" style="rounded=0;whiteSpace=wrap;html=1;fillColor=#042E77;strokeColor=#BB920B;" vertex="1" parent="1">
          <mxGeometry x="570" y="400" width="10" height="10" as="geometry" />
        </mxCell>
        <mxCell id="1QHa7JC74mxXXiWMhFZg-1929" value="" style="rounded=0;whiteSpace=wrap;html=1;fillColor=#093B87;strokeColor=#BB920B;" vertex="1" parent="1">
          <mxGeometry x="580" y="400" width="10" height="10" as="geometry" />
        </mxCell>
        <mxCell id="1QHa7JC74mxXXiWMhFZg-1930" value="" style="rounded=0;whiteSpace=wrap;html=1;fillColor=#104997;strokeColor=#573C03;" vertex="1" parent="1">
          <mxGeometry x="570" y="420" width="10" height="10" as="geometry" />
        </mxCell>
        <mxCell id="1QHa7JC74mxXXiWMhFZg-1931" value="" style="rounded=0;whiteSpace=wrap;html=1;fillColor=#1858A7;strokeColor=#573C03;" vertex="1" parent="1">
          <mxGeometry x="580" y="420" width="10" height="10" as="geometry" />
        </mxCell>
        <mxCell id="1QHa7JC74mxXXiWMhFZg-1932" value="" style="rounded=0;whiteSpace=wrap;html=1;fillColor=#000000;strokeColor=#BB920B;" vertex="1" parent="1">
          <mxGeometry x="610" y="400" width="40" height="10" as="geometry" />
        </mxCell>
        <mxCell id="1QHa7JC74mxXXiWMhFZg-1933" value="" style="rounded=0;whiteSpace=wrap;html=1;fillColor=#1858A7;strokeColor=#BB920B;" vertex="1" parent="1">
          <mxGeometry x="650" y="400" width="10" height="10" as="geometry" />
        </mxCell>
        <mxCell id="1QHa7JC74mxXXiWMhFZg-1934" value="" style="rounded=0;whiteSpace=wrap;html=1;fillColor=#104793;strokeColor=#573C03;" vertex="1" parent="1">
          <mxGeometry x="610" y="420" width="10" height="10" as="geometry" />
        </mxCell>
        <mxCell id="1QHa7JC74mxXXiWMhFZg-1935" value="" style="rounded=0;whiteSpace=wrap;html=1;fillColor=#093B87;strokeColor=#573C03;" vertex="1" parent="1">
          <mxGeometry x="620" y="420" width="10" height="10" as="geometry" />
        </mxCell>
        <mxCell id="1QHa7JC74mxXXiWMhFZg-1936" value="" style="rounded=0;whiteSpace=wrap;html=1;fillColor=#042E77;strokeColor=#7C838C;" vertex="1" parent="1">
          <mxGeometry x="620" y="360" width="10" height="10" as="geometry" />
        </mxCell>
        <mxCell id="1QHa7JC74mxXXiWMhFZg-1942" style="edgeStyle=none;rounded=0;orthogonalLoop=1;jettySize=auto;html=1;exitX=0.5;exitY=1;exitDx=0;exitDy=0;entryX=0.25;entryY=0;entryDx=0;entryDy=0;strokeColor=#FF8000;strokeWidth=1;fontFamily=Times New Roman;fontSize=12;fontColor=#573C03;endArrow=classicThin;endFill=1;fillColor=#FFFFFF;" edge="1" parent="1" source="1QHa7JC74mxXXiWMhFZg-880" target="1QHa7JC74mxXXiWMhFZg-1885">
          <mxGeometry relative="1" as="geometry" />
        </mxCell>
        <mxCell id="1QHa7JC74mxXXiWMhFZg-1943" style="edgeStyle=none;rounded=0;orthogonalLoop=1;jettySize=auto;html=1;exitX=0.5;exitY=1;exitDx=0;exitDy=0;entryX=0;entryY=0.5;entryDx=0;entryDy=0;strokeColor=#FF8000;strokeWidth=1;fontFamily=Times New Roman;fontSize=12;fontColor=#573C03;endArrow=classicThin;endFill=1;fillColor=#FFFFFF;" edge="1" parent="1" source="1QHa7JC74mxXXiWMhFZg-884" target="1QHa7JC74mxXXiWMhFZg-1889">
          <mxGeometry relative="1" as="geometry" />
        </mxCell>
        <mxCell id="1QHa7JC74mxXXiWMhFZg-1945" style="edgeStyle=none;rounded=0;orthogonalLoop=1;jettySize=auto;html=1;exitX=0.5;exitY=1;exitDx=0;exitDy=0;entryX=0.133;entryY=-0.024;entryDx=0;entryDy=0;entryPerimeter=0;strokeColor=#FF8000;strokeWidth=1;fontFamily=Times New Roman;fontSize=12;fontColor=#573C03;endArrow=classicThin;endFill=1;fillColor=#FFFFFF;" edge="1" parent="1" source="1QHa7JC74mxXXiWMhFZg-892" target="1QHa7JC74mxXXiWMhFZg-1897">
          <mxGeometry relative="1" as="geometry" />
        </mxCell>
        <mxCell id="1QHa7JC74mxXXiWMhFZg-1946" style="edgeStyle=none;rounded=0;orthogonalLoop=1;jettySize=auto;html=1;exitX=0.5;exitY=1;exitDx=0;exitDy=0;entryX=0.14;entryY=-0.098;entryDx=0;entryDy=0;entryPerimeter=0;strokeColor=#FF8000;strokeWidth=1;fontFamily=Times New Roman;fontSize=12;fontColor=#573C03;endArrow=classicThin;endFill=1;fillColor=#FFFFFF;" edge="1" parent="1" source="1QHa7JC74mxXXiWMhFZg-896" target="1QHa7JC74mxXXiWMhFZg-1901">
          <mxGeometry relative="1" as="geometry" />
        </mxCell>
        <mxCell id="1QHa7JC74mxXXiWMhFZg-1948" style="edgeStyle=none;rounded=0;orthogonalLoop=1;jettySize=auto;html=1;exitX=0.5;exitY=1;exitDx=0;exitDy=0;entryX=0.25;entryY=0;entryDx=0;entryDy=0;strokeColor=#FF8000;strokeWidth=1;fontFamily=Times New Roman;fontSize=12;fontColor=#573C03;endArrow=classicThin;endFill=1;fillColor=#FFFFFF;" edge="1" parent="1" source="1QHa7JC74mxXXiWMhFZg-904" target="1QHa7JC74mxXXiWMhFZg-1909">
          <mxGeometry relative="1" as="geometry" />
        </mxCell>
        <mxCell id="1QHa7JC74mxXXiWMhFZg-1949" style="edgeStyle=none;rounded=0;orthogonalLoop=1;jettySize=auto;html=1;exitX=0.5;exitY=1;exitDx=0;exitDy=0;entryX=0.5;entryY=0;entryDx=0;entryDy=0;strokeColor=#FF8000;strokeWidth=1;fontFamily=Times New Roman;fontSize=12;fontColor=#573C03;endArrow=classicThin;endFill=1;fillColor=#FFFFFF;" edge="1" parent="1" source="1QHa7JC74mxXXiWMhFZg-908" target="1QHa7JC74mxXXiWMhFZg-1913">
          <mxGeometry relative="1" as="geometry" />
        </mxCell>
        <mxCell id="1QHa7JC74mxXXiWMhFZg-1954" style="edgeStyle=none;rounded=0;orthogonalLoop=1;jettySize=auto;html=1;exitX=0.5;exitY=1;exitDx=0;exitDy=0;entryX=0.25;entryY=0;entryDx=0;entryDy=0;strokeColor=#FF8000;strokeWidth=1;fontFamily=Times New Roman;fontSize=12;fontColor=#573C03;endArrow=classicThin;endFill=1;fillColor=#FFFFFF;" edge="1" parent="1" source="1QHa7JC74mxXXiWMhFZg-923" target="1QHa7JC74mxXXiWMhFZg-1928">
          <mxGeometry relative="1" as="geometry" />
        </mxCell>
        <mxCell id="1QHa7JC74mxXXiWMhFZg-1955" style="edgeStyle=none;rounded=0;orthogonalLoop=1;jettySize=auto;html=1;exitX=0.5;exitY=1;exitDx=0;exitDy=0;entryX=0.5;entryY=0;entryDx=0;entryDy=0;strokeColor=#FF8000;strokeWidth=1;fontFamily=Times New Roman;fontSize=12;fontColor=#573C03;endArrow=classicThin;endFill=1;fillColor=#FFFFFF;" edge="1" parent="1" source="1QHa7JC74mxXXiWMhFZg-925" target="1QHa7JC74mxXXiWMhFZg-1930">
          <mxGeometry relative="1" as="geometry" />
        </mxCell>
        <mxCell id="1QHa7JC74mxXXiWMhFZg-1957" style="edgeStyle=none;rounded=0;orthogonalLoop=1;jettySize=auto;html=1;exitX=0.5;exitY=1;exitDx=0;exitDy=0;entryX=0.5;entryY=0;entryDx=0;entryDy=0;strokeColor=#FF8000;strokeWidth=1;fontFamily=Times New Roman;fontSize=12;fontColor=#573C03;endArrow=classicThin;endFill=1;fillColor=#FFFFFF;" edge="1" parent="1" source="1QHa7JC74mxXXiWMhFZg-929" target="1QHa7JC74mxXXiWMhFZg-1934">
          <mxGeometry relative="1" as="geometry" />
        </mxCell>
      </root>
    </mxGraphModel>
  </diagram>
</mxfile>
